<?xml version="1.0" encoding="utf-8"?>
<svg version="1.1" xmlns:xlink="http://www.w3.org/1999/xlink" width="19px" height="17px" xmlns="http://www.w3.org/2000/svg">
  <g transform="matrix(1 0 0 1 -1361 -1335 )">
    <path d="M 14.3709490740741 11.1673177083333  C 15.2505787037037 11.1673177083333  16.3244598765432 10.8279079861111  17.5925925925926 10.1490885416667  L 17.5925925925926 3.33138020833333  C 16.3537808641975 4.00282118055555  15.2322530864198 4.33854166666667  14.2280092592593 4.33854166666667  C 13.6269290123457 4.33854166666667  13.0954861111111 4.22048611111111  12.6336805555556 3.984375  C 11.9006558641975 3.62282986111111  11.2262731481481 3.34060329861111  10.6105324074074 3.1376953125  C 9.99479166666667 2.93478732638889  9.34239969135803 2.83333333333333  8.65335648148148 2.83333333333333  C 7.3852237654321 2.83333333333333  5.90817901234568 3.30186631944444  4.22222222222222 4.23893229166667  L 4.22222222222222 10.8684895833333  C 6.01813271604938 10.0347222222222  7.60513117283951 9.61783854166667  8.98321759259259 9.61783854166667  C 9.38638117283951 9.61783854166667  9.76572145061728 9.6455078125  10.1212384259259 9.70084635416667  C 10.4767554012346 9.75618489583333  10.8359375 9.85210503472222  11.1987847222222 9.98860677083333  C 11.5616319444444 10.1251085069444  11.8438464506173 10.2394748263889  12.0454282407407 10.3317057291667  C 12.2470100308642 10.4239366319444  12.5493827160494 10.5696614583333  12.9525462962963 10.7688802083333  L 13.2604166666667 10.923828125  C 13.5829475308642 11.0861545138889  13.953125 11.1673177083333  14.3709490740741 11.1673177083333  Z M 2.40248842592593 0.4150390625  C 2.67737268518519 0.691731770833333  2.81481481481481 1.02560763888889  2.81481481481481 1.41666666666667  C 2.81481481481481 1.67491319444444  2.75067515432099 1.91102430555555  2.62239583333333 2.125  C 2.49411651234568 2.33897569444444  2.32368827160494 2.50868055555555  2.11111111111111 2.63411458333333  L 2.11111111111111 16.6458333333333  C 2.11111111111111 16.7491319444444  2.078125 16.833984375  2.01215277777778 16.900390625  C 1.94618055555556 16.966796875  1.86188271604938 17  1.75925925925926 17  L 1.05555555555556 17  C 0.952932098765432 17  0.868634259259259 16.966796875  0.802662037037037 16.900390625  C 0.736689814814815 16.833984375  0.703703703703704 16.7491319444444  1 16.6458333333333  L 1 2.63411458333333  C 0.491126543209877 2.50868055555555  0.320698302469136 2.33897569444444  0.192418981481481 2.125  C 0.0641396604938273 1.91102430555555  0 1.67491319444444  0 1.41666666666667  C 0 1.02560763888889  0.13744212962963 0.691731770833333  0.412326388888889 0.4150390625  C 0.687210648148148 0.138346354166667  1.01890432098765 0  1.40740740740741 0  C 1.79591049382716 0  2.12760416666667 0.138346354166667  2.40248842592593 0.4150390625  Z M 18.6591435185185 1.51627604166667  C 18.8863811728395 1.66384548611111  19 1.86675347222222  19 2.125  L 19 10.5696614583333  C 19 10.857421875  18.8717206790123 11.0677083333333  18.615162037037 11.2005208333333  C 18.5418595679012 11.2374131944444  18.4795524691358 11.2706163194444  18.4282407407407 11.3001302083333  C 16.8302469135802 12.1560329861111  15.4778163580247 12.583984375  14.3709490740741 12.583984375  C 13.725887345679 12.583984375  13.1467978395062 12.4548611111111  12.6336805555556 12.1966145833333  L 12.3258101851852 12.0416666666667  C 11.8566743827161 11.7981770833333  11.4938271604938 11.62109375  11.2372685185185 11.5104166666667  C 10.9807098765432 11.3997395833333  10.6471836419753 11.2927517361111  10.2366898148148 11.189453125  C 9.82619598765432 11.0861545138889  9.40837191358025 11.0345052083333  8.98321759259259 11.0345052083333  C 8.23553240740741 11.0345052083333  7.37239583333333 11.1968315972222  6.39380787037037 11.521484375  C 5.41521990740741 11.8461371527778  4.57773919753086 12.2224392361111  3.88136574074074 12.650390625  C 3.77141203703704 12.716796875  3.65046296296296 12.75  3.51851851851852 12.75  C 3.40123456790124 12.75  3.28395061728395 12.7204861111111  3.16666666666667 12.6614583333333  C 2.9320987654321 12.5212673611111  2.81481481481481 12.3146701388889  2.81481481481481 12.0416666666667  L 2.81481481481481 3.82942708333333  C 2.81481481481481 3.57118055555555  2.92843364197531 3.36827256944444  3.1556712962963 3.220703125  C 3.41222993827161 3.06575520833333  3.69994212962963 2.90896267361111  4.01880787037037 2.75032552083333  C 4.33767361111111 2.59168836805555  4.75549768518519 2.39984809027778  5.27228009259259 2.1748046875  C 5.7890625 1.94976128472222  6.34799382716049 1.76714409722222  6.94907407407407 1.626953125  C 7.55015432098766 1.48676215277778  8.11824845679012 1.41666666666667  8.65335648148148 1.41666666666667  C 9.47434413580247 1.41666666666667  10.2403549382716 1.53103298611111  10.9513888888889 1.759765625  C 11.6624228395062 1.98849826388889  12.4284336419753 2.30577256944444  13.2494212962963 2.71158854166667  C 13.5279706790123 2.85177951388889  13.8541666666667 2.921875  14.2280092592593 2.921875  C 15.1222993827161 2.921875  16.258487654321 2.50868055555555  17.6365740740741 1.68229166666667  C 17.7978395061728 1.59375  17.9114583333333 1.53103298611111  17.9774305555556 1.494140625  C 18.2046682098765 1.37608506944444  18.4319058641975 1.38346354166667  18.6591435185185 1.51627604166667  Z " fill-rule="nonzero" fill="#aeaeae" stroke="none" transform="matrix(1 0 0 1 1361 1335 )" />
  </g>
</svg>