<?xml version="1.0" encoding="utf-8"?>
<svg version="1.1" xmlns:xlink="http://www.w3.org/1999/xlink" width="14px" height="24px" xmlns="http://www.w3.org/2000/svg">
  <g transform="matrix(1 0 0 1 -1279 -1187 )">
    <path d="M 5.25 14.3705357142857  C 5.80598958333333 14.5044642857143  6.38932291666667 14.5714285714286  7 14.5714285714286  C 7.6015625 14.5714285714286  8.18489583333333 14.5044642857143  8.75 14.3705357142857  L 8.75 23.1428571428571  C 8.75 23.375  8.66341145833333 23.5758928571429  8.490234375 23.7455357142857  C 8.31705729166667 23.9151785714286  8.11197916666667 24  7.875 24  L 6.125 24  C 5.88802083333333 24  5.68294270833333 23.9151785714286  5.509765625 23.7455357142857  C 5.33658854166667 23.5758928571429  5.25 23.375  5.25 23.1428571428571  L 5.25 14.3705357142857  Z M 2.05078125 2.00892857142857  C 3.41796875 0.669642857142857  5.06770833333333 0  7 0  C 8.93229166666667 0  10.58203125 0.669642857142857  11.94921875 2.00892857142857  C 13.31640625 3.34821428571429  14 4.96428571428571  14 6.85714285714286  C 14 8.75  13.31640625 10.3660714285714  11.94921875 11.7053571428571  C 10.58203125 13.0446428571429  8.93229166666667 13.7142857142857  7 13.7142857142857  C 5.06770833333333 13.7142857142857  3.41796875 13.0446428571429  2.05078125 11.7053571428571  C 0.68359375 10.3660714285714  0 8.75  0 6.85714285714286  C 0 4.96428571428571  0.68359375 3.34821428571429  2.05078125 2.00892857142857  Z M 4.2177734375 4.13169642857143  C 4.98795572916667 3.37723214285714  5.91536458333333 3  7 3  C 7.12760416666667 3  7.232421875 2.95982142857143  7.314453125 2.87946428571429  C 7.396484375 2.79910714285714  7.4375 2.69642857142857  7.4375 2.57142857142857  C 7.4375 2.44642857142857  7.396484375 2.34375  7.314453125 2.26339285714286  C 7.232421875 2.18303571428571  7.12760416666667 2.14285714285714  7 2.14285714285714  C 5.66927083333333 2.14285714285714  4.53450520833333 2.60267857142857  3.595703125 3.52232142857143  C 2.65690104166667 4.44196428571428  2.1875 5.55357142857143  2.1875 6.85714285714286  C 2.1875 6.98214285714285  2.228515625 7.08482142857143  2.310546875 7.16517857142857  C 2.392578125 7.24553571428571  2.49739583333333 7.28571428571429  2.625 7.28571428571429  C 2.75260416666667 7.28571428571429  2.857421875 7.24553571428571  2.939453125 7.16517857142857  C 3.021484375 7.08482142857143  3.0625 6.98214285714285  3.0625 6.85714285714286  C 3.0625 5.79464285714286  3.44759114583333 4.88616071428571  4.2177734375 4.13169642857143  Z " fill-rule="nonzero" fill="#6b6b6b" stroke="none" transform="matrix(1 0 0 1 1279 1187 )" />
  </g>
</svg>