<?xml version="1.0" encoding="utf-8"?>
<svg version="1.1" xmlns:xlink="http://www.w3.org/1999/xlink" width="22px" height="22px" xmlns="http://www.w3.org/2000/svg">
  <g transform="matrix(1 0 0 1 -1515 -1046 )">
    <path d="M 1526 1046  C 1532.16 1046  1537 1050.84  1537 1057  C 1537 1063.16  1532.16 1068  1526 1068  C 1519.84 1068  1515 1063.16  1515 1057  C 1515 1050.84  1519.84 1046  1526 1046  Z " fill-rule="nonzero" fill="#ffffff" stroke="none" />
    <path d="M 1526 1046.5  C 1531.88 1046.5  1536.5 1051.12  1536.5 1057  C 1536.5 1062.88  1531.88 1067.5  1526 1067.5  C 1520.12 1067.5  1515.5 1062.88  1515.5 1057  C 1515.5 1051.12  1520.12 1046.5  1526 1046.5  Z " stroke-width="1" stroke="#797979" fill="none" />
  </g>
</svg>