<?xml version="1.0" encoding="utf-8"?>
<svg version="1.1" xmlns:xlink="http://www.w3.org/1999/xlink" width="88px" height="82px" xmlns="http://www.w3.org/2000/svg">
  <g transform="matrix(1 0 0 1 -1686 -420 )">
    <path d="M 16 59.6363636363636  L 24 59.6363636363636  L 24 67.0909090909091  L 16 67.0909090909091  L 16 59.6363636363636  Z M 16 14.9090909090909  L 24 14.9090909090909  L 24 22.3636363636364  L 16 22.3636363636364  L 16 14.9090909090909  Z M 64 14.9090909090909  L 72 14.9090909090909  L 72 22.3636363636364  L 64 22.3636363636364  L 64 14.9090909090909  Z M 8 52  L 8 74  L 32 74  L 32 52  L 8 52  Z M 8 8  L 8 30  L 32 30  L 32 8  L 8 8  Z M 56 8  L 56 30  L 80 30  L 80 8  L 56 8  Z M 0 44  L 40 44  L 40 82  L 0 82  L 0 44  Z M 64 74.5454545454545  L 72 74.5454545454545  L 72 82  L 64 82  L 64 74.5454545454545  Z M 80 74.5454545454545  L 88 74.5454545454545  L 88 82  L 80 82  L 80 74.5454545454545  Z M 80 44.7272727272727  L 88 44.7272727272727  L 88 67  L 64 67  L 64 59.6363636363636  L 56 59.6363636363636  L 56 82  L 48 82  L 48 44  L 72 44  L 72 52.1818181818182  L 80 52.1818181818182  L 80 44.7272727272727  Z M 0 0  L 40 0  L 40 38  L 0 38  L 0 0  Z M 48 0  L 88 0  L 88 38  L 48 38  L 48 0  Z " fill-rule="nonzero" fill="#797979" stroke="none" transform="matrix(1 0 0 1 1686 420 )" />
  </g>
</svg>