<?xml version="1.0" encoding="utf-8"?>
<svg version="1.1" xmlns:xlink="http://www.w3.org/1999/xlink" width="20px" height="21px" preserveAspectRatio="xMidYMin meet" viewBox="142 232  18 21" xmlns="http://www.w3.org/2000/svg">
  <path d="M 151 241  L 151 366  A 5 5 0 0 0 156 371 L 898 371  " stroke-width="2" stroke="#3399ff" fill="none" />
  <path d="M 151 239  A 3.5 3.5 0 0 0 147.5 242.5 A 3.5 3.5 0 0 0 151 246 A 3.5 3.5 0 0 0 154.5 242.5 A 3.5 3.5 0 0 0 151 239 Z M 892.892893218813 366.707106781187  L 897.185786437627 371  L 892.892893218813 375.292893218813  L 894.307106781187 376.707106781187  L 899.307106781187 371.707106781187  L 900.014213562373 371  L 899.307106781187 370.292893218813  L 894.307106781187 365.292893218813  L 892.892893218813 366.707106781187  Z " fill-rule="nonzero" fill="#3399ff" stroke="none" />
</svg>