<?xml version="1.0" encoding="utf-8"?>
<svg version="1.1" xmlns:xlink="http://www.w3.org/1999/xlink" width="21px" height="20px" preserveAspectRatio="xMinYMid meet" viewBox="1677 2887  21 18" xmlns="http://www.w3.org/2000/svg">
  <path d="M 1686 2896  L 1775 2896  A 5 5 0 0 0 1780 2891 L 1780 2728  A 5 5 0 0 1 1785 2723 " stroke-width="2" stroke="#0099cc" fill="none" />
  <path d="M 1687.5 2892.5  A 3.5 3.5 0 0 0 1684 2896 A 3.5 3.5 0 0 0 1687.5 2899.5 A 3.5 3.5 0 0 0 1691 2896 A 3.5 3.5 0 0 0 1687.5 2892.5 Z M 1783 2730.6  L 1790 2723  L 1783 2715.4  L 1783 2730.6  Z " fill-rule="nonzero" fill="#0099cc" stroke="none" />
</svg>