<?xml version="1.0" encoding="utf-8"?>
<svg version="1.1" xmlns:xlink="http://www.w3.org/1999/xlink" width="10px" height="162px" preserveAspectRatio="xMidYMin meet" viewBox="1346 2643  8 162" xmlns="http://www.w3.org/2000/svg">
  <path d="M 876 2648  L 1345 2648  A 5 5 0 0 1 1350 2653 L 1350 2795  A 5 5 0 0 0 1355 2800 " stroke-width="2" stroke="#0099cc" fill="none" />
  <path d="M 877.5 2644.5  A 3.5 3.5 0 0 0 874 2648 A 3.5 3.5 0 0 0 877.5 2651.5 A 3.5 3.5 0 0 0 881 2648 A 3.5 3.5 0 0 0 877.5 2644.5 Z M 1353 2807.6  L 1360 2800  L 1353 2792.4  L 1353 2807.6  Z " fill-rule="nonzero" fill="#0099cc" stroke="none" />
</svg>