<?xml version="1.0" encoding="utf-8"?>
<svg version="1.1" xmlns:xlink="http://www.w3.org/1999/xlink" width="10px" height="115px" preserveAspectRatio="xMidYMin meet" viewBox="2196 2810  8 115" xmlns="http://www.w3.org/2000/svg">
  <path d="M 1722 3098  L 1725 3098  A 5 5 0 0 0 1730 3093 L 1730 2925  A 5 5 0 0 1 1735 2920 L 2195 2920  A 5 5 0 0 0 2200 2915 L 2200 2820  A 5 5 0 0 1 2205 2815 " stroke-width="2" stroke="#0099cc" fill="none" />
  <path d="M 1723.5 3094.5  A 3.5 3.5 0 0 0 1720 3098 A 3.5 3.5 0 0 0 1723.5 3101.5 A 3.5 3.5 0 0 0 1727 3098 A 3.5 3.5 0 0 0 1723.5 3094.5 Z M 2203 2822.6  L 2210 2815  L 2203 2807.4  L 2203 2822.6  Z " fill-rule="nonzero" fill="#0099cc" stroke="none" />
</svg>