<?xml version="1.0" encoding="utf-8"?>
<svg version="1.1" xmlns:xlink="http://www.w3.org/1999/xlink" width="21px" height="20px" preserveAspectRatio="xMinYMid meet" viewBox="2043 4799  21 18" xmlns="http://www.w3.org/2000/svg">
  <path d="M 2052 4808  L 2415 4808  A 5 5 0 0 0 2420 4803 L 2420 4527  A 5 5 0 0 1 2425 4522 L 2425 4522  " stroke-width="2" stroke="#0099cc" fill="none" />
  <path d="M 2053.5 4804.5  A 3.5 3.5 0 0 0 2050 4808 A 3.5 3.5 0 0 0 2053.5 4811.5 A 3.5 3.5 0 0 0 2057 4808 A 3.5 3.5 0 0 0 2053.5 4804.5 Z M 2424 4529.6  L 2431 4522  L 2424 4514.4  L 2424 4529.6  Z " fill-rule="nonzero" fill="#0099cc" stroke="none" />
</svg>