<?xml version="1.0" encoding="utf-8"?>
<svg version="1.1" xmlns:xlink="http://www.w3.org/1999/xlink" width="200px" height="10px" preserveAspectRatio="xMinYMid meet" viewBox="3425 4856  200 8" xmlns="http://www.w3.org/2000/svg">
  <path d="M 2610 4972  L 2610 4975  A 5 5 0 0 0 2615 4980 L 3425 4980  A 5 5 0 0 0 3430 4975 L 3430 4865  A 5 5 0 0 1 3435 4860 L 3615 4860  A 5 5 0 0 0 3620 4855 L 3620 4848  " stroke-width="2" stroke="#0099cc" fill="none" />
  <path d="M 2610 4970  A 3.5 3.5 0 0 0 2606.5 4973.5 A 3.5 3.5 0 0 0 2610 4977 A 3.5 3.5 0 0 0 2613.5 4973.5 A 3.5 3.5 0 0 0 2610 4970 Z M 3627.6 4849  L 3620 4842  L 3612.4 4849  L 3627.6 4849  Z " fill-rule="nonzero" fill="#0099cc" stroke="none" />
</svg>