<?xml version="1.0" encoding="utf-8"?>
<svg version="1.1" xmlns:xlink="http://www.w3.org/1999/xlink" width="10px" height="15px" preserveAspectRatio="xMidYMin meet" viewBox="2606 4970  8 15" xmlns="http://www.w3.org/2000/svg">
  <path d="M 3210 4552  L 3210 4975  A 5 5 0 0 1 3205 4980 L 2615 4980  A 5 5 0 0 1 2610 4975 " stroke-width="2" stroke="#0099cc" fill="none" />
  <path d="M 3210 4550  A 3.5 3.5 0 0 0 3206.5 4553.5 A 3.5 3.5 0 0 0 3210 4557 A 3.5 3.5 0 0 0 3213.5 4553.5 A 3.5 3.5 0 0 0 3210 4550 Z M 2617.6 4977  L 2610 4970  L 2602.4 4977  L 2617.6 4977  Z " fill-rule="nonzero" fill="#0099cc" stroke="none" />
</svg>