<?xml version="1.0" encoding="utf-8"?>
<svg version="1.1" xmlns:xlink="http://www.w3.org/1999/xlink" width="10px" height="103px" preserveAspectRatio="xMidYMin meet" viewBox="3616 4842  8 103" xmlns="http://www.w3.org/2000/svg">
  <path d="M 2610 4932  L 2610 4935  A 5 5 0 0 0 2615 4940 L 3207 4940  A 3 3 0 0 1 3210 4937 A 3 3 0 0 1 3213 4940 L 3615 4940  A 5 5 0 0 0 3620 4935 L 3620 4848  " stroke-width="2" stroke="#0099cc" fill="none" />
  <path d="M 2610 4930  A 3.5 3.5 0 0 0 2606.5 4933.5 A 3.5 3.5 0 0 0 2610 4937 A 3.5 3.5 0 0 0 2613.5 4933.5 A 3.5 3.5 0 0 0 2610 4930 Z M 3627.6 4849  L 3620 4842  L 3612.4 4849  L 3627.6 4849  Z " fill-rule="nonzero" fill="#0099cc" stroke="none" />
</svg>