<?xml version="1.0" encoding="utf-8"?>
<svg version="1.1" xmlns:xlink="http://www.w3.org/1999/xlink" width="20px" height="21px" preserveAspectRatio="xMidYMin meet" viewBox="3201 4543  18 21" xmlns="http://www.w3.org/2000/svg">
  <path d="M 3210 4552  L 3210 4945  A 5 5 0 0 1 3205 4950 L 2615 4950  A 5 5 0 0 1 2610 4945 L 2610 4936  " stroke-width="2" stroke="#0099cc" fill="none" />
  <path d="M 3210 4550  A 3.5 3.5 0 0 0 3206.5 4553.5 A 3.5 3.5 0 0 0 3210 4557 A 3.5 3.5 0 0 0 3213.5 4553.5 A 3.5 3.5 0 0 0 3210 4550 Z M 2617.6 4937  L 2610 4930  L 2602.4 4937  L 2617.6 4937  Z " fill-rule="nonzero" fill="#0099cc" stroke="none" />
</svg>