<?xml version="1.0" encoding="utf-8"?>
<svg version="1.1" xmlns:xlink="http://www.w3.org/1999/xlink" width="20px" height="20px" preserveAspectRatio="xMinYMid meet" viewBox="2600 4826  20 18" xmlns="http://www.w3.org/2000/svg">
  <path d="M 3208 4550  L 3205 4550  A 5 5 0 0 0 3200 4555 L 3200 4835  A 5 5 0 0 1 3195 4840 L 2615 4840  A 5 5 0 0 1 2610 4835 " stroke-width="2" stroke="#0099cc" fill="none" />
  <path d="M 3206.5 4546.5  A 3.5 3.5 0 0 0 3203 4550 A 3.5 3.5 0 0 0 3206.5 4553.5 A 3.5 3.5 0 0 0 3210 4550 A 3.5 3.5 0 0 0 3206.5 4546.5 Z M 2617.6 4837  L 2610 4830  L 2602.4 4837  L 2617.6 4837  Z " fill-rule="nonzero" fill="#0099cc" stroke="none" />
</svg>