<?xml version="1.0" encoding="utf-8"?>
<svg version="1.1" xmlns:xlink="http://www.w3.org/1999/xlink" width="15px" height="6px" xmlns="http://www.w3.org/2000/svg">
  <g transform="matrix(1 0 0 1 -2510 -418 )">
    <path d="M 14.424 2.996  C 14.424 4.756  10.068 5.196  7.472 5.196  C 4.876 5.196  0.52 4.756  0.52 2.996  C 0.52 1.236  4.876 0.752000000000002  7.472 0.752000000000002  C 10.068 0.752000000000002  14.424 1.236  14.424 2.996  Z M 13.412 2.996  C 13.324 2.644  11.388 1.764  7.472 1.764  C 3.556 1.764  1.62 2.644  1.532 2.996  C 1.62 3.348  3.556 4.228  7.472 4.228  C 11.388 4.228  13.324 3.348  13.412 2.996  Z " fill-rule="nonzero" fill="#606161" stroke="none" transform="matrix(1 0 0 1 2510 418 )" />
  </g>
</svg>