<?xml version="1.0" encoding="utf-8"?>
<svg version="1.1" xmlns:xlink="http://www.w3.org/1999/xlink" width="1230px" height="10px" preserveAspectRatio="xMinYMid meet" viewBox="1865 4156  1230 8" xmlns="http://www.w3.org/2000/svg">
  <path d="M 1870 4188  L 1870 4165  A 5 5 0 0 1 1875 4160 L 3085 4160  A 5 5 0 0 1 3090 4165 L 3090 4444  " stroke-width="2" stroke="#0099cc" fill="none" />
  <path d="M 1870 4183  A 3.5 3.5 0 0 0 1866.5 4186.5 A 3.5 3.5 0 0 0 1870 4190 A 3.5 3.5 0 0 0 1873.5 4186.5 A 3.5 3.5 0 0 0 1870 4183 Z M 3082.4 4443  L 3090 4450  L 3097.6 4443  L 3082.4 4443  Z " fill-rule="nonzero" fill="#0099cc" stroke="none" />
</svg>