<?xml version="1.0" encoding="utf-8"?>
<svg version="1.1" xmlns:xlink="http://www.w3.org/1999/xlink" width="13px" height="18px" xmlns="http://www.w3.org/2000/svg">
  <g transform="matrix(1 0 0 1 -2511 -404 )">
    <path d="M 12.148 6.348  C 12.148 3.224  9.64 0.716  6.516 0.716  C 3.392 0.716  0.884 3.224  0.884 6.348  C 0.884 9.472  6.516 17.348  6.516 17.348  C 6.516 17.348  12.148 9.472  12.148 6.348  Z M 7.748 5.336  C 7.748 6.04  7.176 6.568  6.516 6.568  C 5.812 6.568  5.284 6.04  5.284 5.336  C 5.284 4.632  5.812 4.104  6.516 4.104  C 7.22 4.104  7.748 4.632  7.748 5.336  Z " fill-rule="nonzero" fill="#606161" stroke="none" transform="matrix(1 0 0 1 2511 404 )" />
  </g>
</svg>