<?xml version="1.0" encoding="utf-8"?>
<svg version="1.1" xmlns:xlink="http://www.w3.org/1999/xlink" width="356px" height="10px" preserveAspectRatio="xMinYMid meet" viewBox="1688 5958  356 8" xmlns="http://www.w3.org/2000/svg">
  <path d="M 710 5787  L 710 5905  A 5 5 0 0 0 715 5910 L 1688 5910  A 5 5 0 0 1 1693 5915 L 1693 5957  A 5 5 0 0 0 1698 5962 L 2038 5962  " stroke-width="2" stroke="#0099cc" fill="none" />
  <path d="M 710 5785  A 3.5 3.5 0 0 0 706.5 5788.5 A 3.5 3.5 0 0 0 710 5792 A 3.5 3.5 0 0 0 713.5 5788.5 A 3.5 3.5 0 0 0 710 5785 Z M 2037 5969.6  L 2044 5962  L 2037 5954.4  L 2037 5969.6  Z " fill-rule="nonzero" fill="#0099cc" stroke="none" />
</svg>