<?xml version="1.0" encoding="utf-8"?>
<svg version="1.1" xmlns:xlink="http://www.w3.org/1999/xlink" width="15px" height="10px" preserveAspectRatio="xMinYMid meet" viewBox="2070 2823  15 8" xmlns="http://www.w3.org/2000/svg">
  <path d="M 2072 2827  L 2075 2827  A 5 5 0 0 0 2080 2822 L 2080 2815  A 5 5 0 0 1 2085 2810 L 2197.5 2810  A 2.5 2.5 0 0 1 2200 2812.5 A 2.5 2.5 0 0 0 2202.5 2815 L 2204 2815  " stroke-width="2" stroke="#0099cc" fill="none" />
  <path d="M 2073.5 2823.5  A 3.5 3.5 0 0 0 2070 2827 A 3.5 3.5 0 0 0 2073.5 2830.5 A 3.5 3.5 0 0 0 2077 2827 A 3.5 3.5 0 0 0 2073.5 2823.5 Z M 2203 2822.6  L 2210 2815  L 2203 2807.4  L 2203 2822.6  Z " fill-rule="nonzero" fill="#0099cc" stroke="none" />
</svg>