<?xml version="1.0" encoding="utf-8"?>
<svg version="1.1" xmlns:xlink="http://www.w3.org/1999/xlink" width="20px" height="21px" preserveAspectRatio="xMidYMin meet" viewBox="701 5778  18 21" xmlns="http://www.w3.org/2000/svg">
  <path d="M 710 5787  L 710 5815  A 5 5 0 0 0 715 5820 L 2219 5820  A 5 5 0 0 0 2224 5815 " stroke-width="2" stroke="#0099cc" fill="none" />
  <path d="M 710 5785  A 3.5 3.5 0 0 0 706.5 5788.5 A 3.5 3.5 0 0 0 710 5792 A 3.5 3.5 0 0 0 713.5 5788.5 A 3.5 3.5 0 0 0 710 5785 Z M 2231.6 5817  L 2224 5810  L 2216.4 5817  L 2231.6 5817  Z " fill-rule="nonzero" fill="#0099cc" stroke="none" />
</svg>