<?xml version="1.0" encoding="utf-8"?>
<svg version="1.1" xmlns:xlink="http://www.w3.org/1999/xlink" width="10px" height="291px" preserveAspectRatio="xMidYMin meet" viewBox="1676 4448  8 291" xmlns="http://www.w3.org/2000/svg">
  <path d="M 872 4734  L 1675 4734  A 5 5 0 0 0 1680 4729 L 1680 4458  A 5 5 0 0 1 1685 4453 L 1685 4453  " stroke-width="2" stroke="#0099cc" fill="none" />
  <path d="M 873.5 4730.5  A 3.5 3.5 0 0 0 870 4734 A 3.5 3.5 0 0 0 873.5 4737.5 A 3.5 3.5 0 0 0 877 4734 A 3.5 3.5 0 0 0 873.5 4730.5 Z M 1684 4460.6  L 1691 4453  L 1684 4445.4  L 1684 4460.6  Z " fill-rule="nonzero" fill="#0099cc" stroke="none" />
</svg>