<?xml version="1.0" encoding="utf-8"?>
<svg version="1.1" xmlns:xlink="http://www.w3.org/1999/xlink" width="18px" height="15px" xmlns="http://www.w3.org/2000/svg">
  <g transform="matrix(1 0 0 1 -4007 -4473 )">
    <path d="M 17.2715013586957 3.65439967105263  C 17.2670686141304 2.79361122532895  16.5711277173913 2.09827302631579  15.7111752717391 2.09827302631579  L 13.5280485733696 2.09827302631579  L 12.8254585597826 0.526495682565788  C 12.8321076766304 0.544382195723684  12.834324048913 0.564504523026315  12.8431895380435 0.584626850328947  C 12.7190726902174 0.267141241776315  12.4154296875 0.0435598273026309  12.0563773777174 0.0100226151315782  L 5.84831861413044 0.0100226151315782  C 5.52029551630435 0.0413240131578943  5.24103260869565 0.233604029605262  5.10361752717391 0.510844983552631  L 4.39659476902174 2.09603721217105  L 2.21346807065217 2.09603721217105  C 1.353515625 2.09603721217105  0.655358355978261 2.79361122532895  0.655358355978261 3.65216385690789  L 0.655358355978261 12.691560444079  C 0.655358355978261 13.5501130756579  1.35129925271739 14.2476870888158  2.21346807065217 14  L 15.7133916440217 14  C 16.5733440896739 14.2476870888158  17.2715013586957 13.5501130756579  17.2715013586957 12.691560444079  L 17.2715013586957 3.65439967105263  Z M 11.8679857336957 7.96281352796052  C 11.8679857336957 9.58154296875  10.5669752038043 10.8939658717105  8.96010529891304 10.8939658717105  C 7.35323539402174 10.8939658717105  6.05444123641304 9.58154296875  6.05444123641304 7.96281352796052  C 6.05444123641304 6.34408408717105  7.35766813858696 5.03166118421052  8.96010529891304 5.03166118421052  C 10.5669752038043 5.03166118421052  11.8679857336957 6.34408408717105  11.8679857336957 7.96281352796052  Z " fill-rule="nonzero" fill="#000000" stroke="none" transform="matrix(1 0 0 1 4007 4473 )" />
  </g>
</svg>