<?xml version="1.0" encoding="utf-8"?>
<svg version="1.1" xmlns:xlink="http://www.w3.org/1999/xlink" width="20px" height="20px" xmlns="http://www.w3.org/2000/svg">
  <g transform="matrix(1 0 0 1 -1667 -512 )">
    <path d="M 19.9811922341463 10  C 19.9811922341463 15.5178099317073  15.5073494048781 19.990243902439  9.99024390243902 19.990243902439  C 4.47243397073171 19.990243902439  0 15.517105502439  0 10  C 0 4.48219006829268  4.47243397073171 0.00975609756097562  9.99024390243902 0.00975609756097562  C 15.5073494048781 0.00975609756097562  19.9811922341463 4.48219006829268  19.9811922341463 10  Z M 14.9860702829268 9.00111648780488  L 10.9898318439024 9.00111648780488  L 10.9898318439024 5.00487804878049  L 8.99206483902439 5.00487804878049  L 8.99206483902439 9.00111648780488  L 4.99512195121951 9.00111648780488  L 4.99512195121951 10.9988834926829  L 8.9913603902439 10.9988834926829  L 8.9913603902439 14.9951219317073  L 10.989127395122 14.9951219317073  L 10.989127395122 10.9988834926829  L 14.9853658341463 10.9988834926829  L 14.9853658536585 9.00111648780488  Z " fill-rule="nonzero" fill="#606161" stroke="none" transform="matrix(1 0 0 1 1667 512 )" />
  </g>
</svg>