<?xml version="1.0" encoding="utf-8"?>
<svg version="1.1" xmlns:xlink="http://www.w3.org/1999/xlink" width="20px" height="20px" preserveAspectRatio="xMinYMid meet" viewBox="515 2791  20 18" xmlns="http://www.w3.org/2000/svg">
  <path d="M 548 1917  L 525 1917  A 5 5 0 0 0 520 1922 L 520 2795  A 5 5 0 0 0 525 2800 " stroke-width="2" stroke="#0099cc" fill="none" />
  <path d="M 546.5 1913.5  A 3.5 3.5 0 0 0 543 1917 A 3.5 3.5 0 0 0 546.5 1920.5 A 3.5 3.5 0 0 0 550 1917 A 3.5 3.5 0 0 0 546.5 1913.5 Z M 523 2807.6  L 530 2800  L 523 2792.4  L 523 2807.6  Z " fill-rule="nonzero" fill="#0099cc" stroke="none" />
</svg>