<?xml version="1.0" encoding="utf-8"?>
<svg version="1.1" xmlns:xlink="http://www.w3.org/1999/xlink" width="10px" height="132px" preserveAspectRatio="xMidYMin meet" viewBox="4086 4783  8 132" xmlns="http://www.w3.org/2000/svg">
  <path d="M 2776 4725  L 3197 4725  A 3 3 0 0 1 3200 4722 A 3 3 0 0 1 3203 4725 L 3325 4725  A 5 5 0 0 1 3330 4730 L 3330 4857  A 3 3 0 0 1 3333 4860 A 3 3 0 0 1 3330 4863 L 3330 4905  A 5 5 0 0 0 3335 4910 L 4085 4910  A 5 5 0 0 0 4090 4905 L 4090 4789  " stroke-width="2" stroke="#0099cc" fill="none" />
  <path d="M 2777.5 4721.5  A 3.5 3.5 0 0 0 2774 4725 A 3.5 3.5 0 0 0 2777.5 4728.5 A 3.5 3.5 0 0 0 2781 4725 A 3.5 3.5 0 0 0 2777.5 4721.5 Z M 4097.6 4790  L 4090 4783  L 4082.4 4790  L 4097.6 4790  Z " fill-rule="nonzero" fill="#0099cc" stroke="none" />
</svg>