<?xml version="1.0" encoding="utf-8"?>
<svg version="1.1" xmlns:xlink="http://www.w3.org/1999/xlink" width="35px" height="10px" preserveAspectRatio="xMinYMid meet" viewBox="515 1970  35 8" xmlns="http://www.w3.org/2000/svg">
  <path d="M 548 1974  L 525 1974  A 5 5 0 0 0 520 1979 L 520 3449  A 5 5 0 0 0 525 3454 L 525 3454  " stroke-width="2" stroke="#0099cc" fill="none" />
  <path d="M 546.5 1970.5  A 3.5 3.5 0 0 0 543 1974 A 3.5 3.5 0 0 0 546.5 1977.5 A 3.5 3.5 0 0 0 550 1974 A 3.5 3.5 0 0 0 546.5 1970.5 Z M 524 3461.6  L 531 3454  L 524 3446.4  L 524 3461.6  Z " fill-rule="nonzero" fill="#0099cc" stroke="none" />
</svg>