<?xml version="1.0" encoding="utf-8"?>
<svg version="1.1" xmlns:xlink="http://www.w3.org/1999/xlink" width="20px" height="20px" preserveAspectRatio="xMinYMid meet" viewBox="1344 3486  20 18" xmlns="http://www.w3.org/2000/svg">
  <path d="M 867.917702154417 2698.51033024756  A 4 4 0 0 0 870 2695 A 5 5 0 0 1 875 2690 L 1305 2690  A 5 5 0 0 1 1310 2695 L 1310 3490  A 5 5 0 0 0 1315 3495 L 1353 3495  " stroke-width="2" stroke="#0099cc" fill="none" />
  <path d="M 869.070174008944 2694.06398743265  A 3.5 3.5 0 0 0 865.570174008944 2697.56398743265 A 3.5 3.5 0 0 0 869.070174008944 2701.06398743265 A 3.5 3.5 0 0 0 872.570174008944 2697.56398743265 A 3.5 3.5 0 0 0 869.070174008944 2694.06398743265 Z M 1352 3502.6  L 1359 3495  L 1352 3487.4  L 1352 3502.6  Z " fill-rule="nonzero" fill="#0099cc" stroke="none" />
</svg>