<?xml version="1.0" encoding="utf-8"?>
<svg version="1.1" xmlns:xlink="http://www.w3.org/1999/xlink" width="20px" height="20px" xmlns="http://www.w3.org/2000/svg">
  <g transform="matrix(1 0 0 1 -5731 -4752 )">
    <path d="M 19.5421645220588 13.814453125  C 19.6169577205882 13.8868336397059  19.6507352941176 13.9736902573529  19.6507352941176 14.0822610294118  L 19.6507352941176 16.3091681985294  C 19.6507352941176 16.4153262867647  19.6169577205882 16.5070082720588  19.5469898897059 16.5745634191176  C 19.4770220588235 16.6421185661765  19.3877527573529 16.6783088235294  19.2815946691176 16.6783088235294  L 16.6807215073529 16.6783088235294  L 16.6807215073529 19.2767693014706  C 16.6807215073529 19.3829273897059  16.6469439338235 19.474609375  16.5769761029412 19.5421645220588  C 16.5070082720588 19.6121323529412  16.4177389705882 19.6459099264706  16.3115808823529 19.6459099264706  L 14.0846737132353 19.6459099264706  C 13.978515625 19.6459099264706  13.8868336397059 19.6121323529412  13.8192784926471 19.5421645220588  C 13.7493106617647 19.4721966911765  13.7155330882353 19.3829273897059  13.7155330882353 19.2767693014706  L 13.7155330882353 16.6783088235294  L 3.68841911764706 16.6783088235294  C 3.58226102941176 16.6783088235294  3.49057904411765 16.64453125  3.42302389705882 16.5745634191176  C 3.35305606617647 16.5045955882353  3.31927849264706 16.4153262867647  3.31927849264706 16.3091681985294  L 3.31927849264706 6.28929227941176  L 0.720818014705882 6.28929227941176  C 0.614659926470588 6.28929227941176  0.522977941176471 6.25551470588235  0.455422794117647 6.185546875  C 0.385454963235294 6.11557904411765  0.351677389705883 6.02630974264706  0.351677389705883 5.92015165441176  L 0.351677389705883 3.69324448529412  C 0.351677389705883 3.58708639705882  0.385454963235295 3.49540441176471  0.455422794117647 3.42784926470588  C 0.525390625 3.35788143382353  0.614659926470588 3.32410386029412  0.720818014705882 3.32410386029412  L 3.31927849264706 3.32410386029412  L 3.31927849264706 0.720818014705882  C 3.31927849264706 0.614659926470588  3.35305606617647 0.522977941176471  3.42302389705882 0.455422794117647  C 3.49299172794118 0.385454963235294  3.58226102941177 0.351677389705883  3.68841911764706 0.351677389705883  L 5.91532628676471 0.351677389705883  C 6.021484375 0.351677389705883  6.11316636029412 0.385454963235295  6.18072150735294 0.455422794117647  C 6.25068933823529 0.525390625  6.28446691176471 0.614659926470588  6.28446691176471 0.720818014705882  L 6.28446691176471 3.31927849264706  L 16.1547564338235 3.31927849264706  L 19.0089613970588 0.455422794117648  C 19.0861672794118 0.385454963235295  19.1754365808824 0.351677389705883  19.2743566176471 0.351677389705883  C 19.3732766544118 0.351677389705883  19.4649586397059 0.385454963235295  19.5397518382353 0.455422794117648  C 19.6097196691177 0.532628676470589  19.6434972426471 0.621897977941177  19.6434972426471 0.720818014705883  C 19.6434972426471 0.819738051470588  19.6097196691177 0.911420036764706  19.5397518382353 0.986213235294118  L 16.6783088235294 3.84041819852941  L 16.6783088235294 13.7107077205882  L 19.2767693014706 13.7107077205882  C 19.3829273897059 13.7107077205882  19.474609375 13.7444852941176  19.5421645220588 13.814453125  Z M 6.28687959558824 6.2917049632353  L 6.28687959558824 13.1919806985294  L 13.1895680147059 6.2917049632353  L 6.28687959558824 6.2917049632353  Z M 13.7082950367647 6.81043198529412  L 6.80801930147059 13.7107077205882  L 13.7082950367647 13.7107077205882  L 13.7082950367647 6.81043198529412  Z " fill-rule="nonzero" fill="#ffffff" stroke="none" transform="matrix(1 0 0 1 5731 4752 )" />
  </g>
</svg>