<?xml version="1.0" encoding="utf-8"?>
<svg version="1.1" xmlns:xlink="http://www.w3.org/1999/xlink" width="20px" height="20px" preserveAspectRatio="xMinYMid meet" viewBox="2935 4501  20 18" xmlns="http://www.w3.org/2000/svg">
  <path d="M 2792 4808  L 2935 4808  A 5 5 0 0 0 2940 4803 L 2940 4515  A 5 5 0 0 1 2945 4510 " stroke-width="2" stroke="#0099cc" fill="none" />
  <path d="M 2793.5 4804.5  A 3.5 3.5 0 0 0 2790 4808 A 3.5 3.5 0 0 0 2793.5 4811.5 A 3.5 3.5 0 0 0 2797 4808 A 3.5 3.5 0 0 0 2793.5 4804.5 Z M 2943 4517.6  L 2950 4510  L 2943 4502.4  L 2943 4517.6  Z " fill-rule="nonzero" fill="#0099cc" stroke="none" />
</svg>