<?xml version="1.0" encoding="utf-8"?>
<svg version="1.1" xmlns:xlink="http://www.w3.org/1999/xlink" width="20px" height="20px" preserveAspectRatio="xMinYMid meet" viewBox="3915 4528  20 18" xmlns="http://www.w3.org/2000/svg">
  <path d="M 2767.91770215442 4848.51033024756  A 4 4 0 0 0 2770 4845 A 5 5 0 0 1 2775 4840 L 3207 4840  A 3 3 0 0 1 3210 4837 A 3 3 0 0 1 3213 4840 L 3425 4840  A 5 5 0 0 1 3430 4845 L 3430 4855  A 5 5 0 0 0 3435 4860 L 3915 4860  A 5 5 0 0 0 3920 4855 L 3920 4542  A 5 5 0 0 1 3925 4537 " stroke-width="2" stroke="#0099cc" fill="none" />
  <path d="M 2769.07017400894 4844.06398743265  A 3.5 3.5 0 0 0 2765.57017400894 4847.56398743265 A 3.5 3.5 0 0 0 2769.07017400894 4851.06398743265 A 3.5 3.5 0 0 0 2772.57017400894 4847.56398743265 A 3.5 3.5 0 0 0 2769.07017400894 4844.06398743265 Z M 3923 4544.6  L 3930 4537  L 3923 4529.4  L 3923 4544.6  Z " fill-rule="nonzero" fill="#0099cc" stroke="none" />
</svg>