<?xml version="1.0" encoding="utf-8"?>
<svg version="1.1" xmlns:xlink="http://www.w3.org/1999/xlink" width="20px" height="21px" preserveAspectRatio="xMidYMin meet" viewBox="2601 4823  18 21" xmlns="http://www.w3.org/2000/svg">
  <path d="M 2610 4832  L 2610 4855  A 5 5 0 0 0 2615 4860 L 3615 4860  A 5 5 0 0 0 3620 4855 L 3620 4848  " stroke-width="2" stroke="#0099cc" fill="none" />
  <path d="M 2610 4830  A 3.5 3.5 0 0 0 2606.5 4833.5 A 3.5 3.5 0 0 0 2610 4837 A 3.5 3.5 0 0 0 2613.5 4833.5 A 3.5 3.5 0 0 0 2610 4830 Z M 3627.6 4849  L 3620 4842  L 3612.4 4849  L 3627.6 4849  Z " fill-rule="nonzero" fill="#0099cc" stroke="none" />
</svg>