<?xml version="1.0" encoding="utf-8"?>
<svg version="1.1" xmlns:xlink="http://www.w3.org/1999/xlink" width="20px" height="21px" preserveAspectRatio="xMidYMin meet" viewBox="2757 4805  18 21" xmlns="http://www.w3.org/2000/svg">
  <path d="M 2768 4819  L 2835 4819  A 5 5 0 0 1 2840 4824 L 2840 4855  A 5 5 0 0 0 2845 4860 L 3207 4860  A 3 3 0 0 1 3210 4857 A 3 3 0 0 1 3213 4860 L 3617 4860  A 3 3 0 0 1 3620 4857 A 3 3 0 0 1 3623 4860 L 3915 4860  A 5 5 0 0 0 3920 4855 L 3920 4542  A 5 5 0 0 1 3925 4537 " stroke-width="2" stroke="#0099cc" fill="none" />
  <path d="M 2769.5 4815.5  A 3.5 3.5 0 0 0 2766 4819 A 3.5 3.5 0 0 0 2769.5 4822.5 A 3.5 3.5 0 0 0 2773 4819 A 3.5 3.5 0 0 0 2769.5 4815.5 Z M 3923 4544.6  L 3930 4537  L 3923 4529.4  L 3923 4544.6  Z " fill-rule="nonzero" fill="#0099cc" stroke="none" />
</svg>