<?xml version="1.0" encoding="utf-8"?>
<svg version="1.1" xmlns:xlink="http://www.w3.org/1999/xlink" width="20px" height="20px" preserveAspectRatio="xMinYMid meet" viewBox="4415 4528  20 18" xmlns="http://www.w3.org/2000/svg">
  <path d="M 4042 4480  L 4415 4480  A 5 5 0 0 1 4420 4485 L 4420 4532  A 5 5 0 0 0 4425 4537 " stroke-width="2" stroke="#0099cc" fill="none" />
  <path d="M 4043.5 4476.5  A 3.5 3.5 0 0 0 4040 4480 A 3.5 3.5 0 0 0 4043.5 4483.5 A 3.5 3.5 0 0 0 4047 4480 A 3.5 3.5 0 0 0 4043.5 4476.5 Z M 4423 4544.6  L 4430 4537  L 4423 4529.4  L 4423 4544.6  Z " fill-rule="nonzero" fill="#0099cc" stroke="none" />
</svg>