<?xml version="1.0" encoding="utf-8"?>
<svg version="1.1" xmlns:xlink="http://www.w3.org/1999/xlink" width="155px" height="10px" preserveAspectRatio="xMinYMid meet" viewBox="4270 5558  155 8" xmlns="http://www.w3.org/2000/svg">
  <path d="M 4272 5562  L 4415 5562  A 5 5 0 0 0 4420 5557 L 4420 5284  A 5 5 0 0 1 4425 5279 " stroke-width="2" stroke="#0099cc" fill="none" />
  <path d="M 4273.5 5558.5  A 3.5 3.5 0 0 0 4270 5562 A 3.5 3.5 0 0 0 4273.5 5565.5 A 3.5 3.5 0 0 0 4277 5562 A 3.5 3.5 0 0 0 4273.5 5558.5 Z M 4423 5286.6  L 4430 5279  L 4423 5271.4  L 4423 5286.6  Z " fill-rule="nonzero" fill="#0099cc" stroke="none" />
</svg>