<?xml version="1.0" encoding="utf-8"?>
<svg version="1.1" xmlns:xlink="http://www.w3.org/1999/xlink" width="14px" height="10px" preserveAspectRatio="xMinYMid meet" viewBox="2761 4802  14 8" xmlns="http://www.w3.org/2000/svg">
  <path d="M 2767 4806  A 3 3 0 0 0 2770 4803 A 3 3 0 0 1 2773 4800 L 3207 4800  A 3 3 0 0 1 3210 4797 A 3 3 0 0 1 3213 4800 L 3425 4800  A 5 5 0 0 1 3430 4805 L 3430 5275  A 5 5 0 0 0 3435 5280 " stroke-width="2" stroke="#0099cc" fill="none" />
  <path d="M 2769.22053055959 4801.51723673225  A 3.5 3.5 0 0 0 2765.72053055959 4805.01723673225 A 3.5 3.5 0 0 0 2769.22053055959 4808.51723673225 A 3.5 3.5 0 0 0 2772.72053055959 4805.01723673225 A 3.5 3.5 0 0 0 2769.22053055959 4801.51723673225 Z M 3433 5287.6  L 3440 5280  L 3433 5272.4  L 3433 5287.6  Z " fill-rule="nonzero" fill="#0099cc" stroke="none" />
</svg>