<?xml version="1.0" encoding="utf-8"?>
<svg version="1.1" xmlns:xlink="http://www.w3.org/1999/xlink" width="190px" height="10px" preserveAspectRatio="xMinYMid meet" viewBox="875 5636  190 8" xmlns="http://www.w3.org/2000/svg">
  <path d="M 871 5646  L 877 5646  A 3 3 0 0 0 880 5643 A 3 3 0 0 1 883 5640 L 1055 5640  A 5 5 0 0 0 1060 5635 L 1060 5476  A 5 5 0 0 1 1065 5471 L 1066 5471  " stroke-width="2" stroke="#0099cc" fill="none" />
  <path d="M 872.5 5642.5  A 3.5 3.5 0 0 0 869 5646 A 3.5 3.5 0 0 0 872.5 5649.5 A 3.5 3.5 0 0 0 876 5646 A 3.5 3.5 0 0 0 872.5 5642.5 Z M 1065 5478.6  L 1072 5471  L 1065 5463.4  L 1065 5478.6  Z " fill-rule="nonzero" fill="#0099cc" stroke="none" />
</svg>