<?xml version="1.0" encoding="utf-8"?>
<svg version="1.1" xmlns:xlink="http://www.w3.org/1999/xlink" width="383px" height="10px" preserveAspectRatio="xMinYMid meet" viewBox="4605 4856  383 8" xmlns="http://www.w3.org/2000/svg">
  <path d="M 4983 4789  L 4983 4855  A 5 5 0 0 1 4978 4860 L 4615 4860  A 5 5 0 0 1 4610 4855 L 4610 4848  " stroke-width="2" stroke="#0099cc" fill="none" />
  <path d="M 4983 4787  A 3.5 3.5 0 0 0 4979.5 4790.5 A 3.5 3.5 0 0 0 4983 4794 A 3.5 3.5 0 0 0 4986.5 4790.5 A 3.5 3.5 0 0 0 4983 4787 Z M 4617.6 4849  L 4610 4842  L 4602.4 4849  L 4617.6 4849  Z " fill-rule="nonzero" fill="#0099cc" stroke="none" />
</svg>