<?xml version="1.0" encoding="utf-8"?>
<svg version="1.1" xmlns:xlink="http://www.w3.org/1999/xlink" width="10px" height="78px" preserveAspectRatio="xMidYMin meet" viewBox="5097 4787  8 78" xmlns="http://www.w3.org/2000/svg">
  <path d="M 5101 4789  L 5101 4855  A 5 5 0 0 0 5106 4860 L 5615 4860  A 5 5 0 0 0 5620 4855 L 5620 4848  " stroke-width="2" stroke="#0099cc" fill="none" />
  <path d="M 5101 4787  A 3.5 3.5 0 0 0 5097.5 4790.5 A 3.5 3.5 0 0 0 5101 4794 A 3.5 3.5 0 0 0 5104.5 4790.5 A 3.5 3.5 0 0 0 5101 4787 Z M 5627.6 4849  L 5620 4842  L 5612.4 4849  L 5627.6 4849  Z " fill-rule="nonzero" fill="#0099cc" stroke="none" />
</svg>