<?xml version="1.0" encoding="utf-8"?>
<svg version="1.1" xmlns:xlink="http://www.w3.org/1999/xlink" width="10px" height="250px" preserveAspectRatio="xMidYMin meet" viewBox="4906 4532  8 250" xmlns="http://www.w3.org/2000/svg">
  <path d="M 4645 4777  L 4905 4777  A 5 5 0 0 0 4910 4772 L 4910 4542  A 5 5 0 0 1 4915 4537 " stroke-width="2" stroke="#0099cc" fill="none" />
  <path d="M 4646.5 4773.5  A 3.5 3.5 0 0 0 4643 4777 A 3.5 3.5 0 0 0 4646.5 4780.5 A 3.5 3.5 0 0 0 4650 4777 A 3.5 3.5 0 0 0 4646.5 4773.5 Z M 4913 4544.6  L 4920 4537  L 4913 4529.4  L 4913 4544.6  Z " fill-rule="nonzero" fill="#0099cc" stroke="none" />
</svg>