<?xml version="1.0" encoding="utf-8"?>
<svg version="1.1" xmlns:xlink="http://www.w3.org/1999/xlink" width="10px" height="693px" preserveAspectRatio="xMidYMin meet" viewBox="2136 2822  8 693" xmlns="http://www.w3.org/2000/svg">
  <path d="M 2056 2827  L 2135 2827  A 5 5 0 0 1 2140 2832 L 2140 2917  A 3 3 0 0 1 2143 2920 A 3 3 0 0 1 2140 2923 L 2140 3505  A 5 5 0 0 0 2145 3510 L 2204 3510  " stroke-width="2" stroke="#0099cc" fill="none" />
  <path d="M 2057.5 2823.5  A 3.5 3.5 0 0 0 2054 2827 A 3.5 3.5 0 0 0 2057.5 2830.5 A 3.5 3.5 0 0 0 2061 2827 A 3.5 3.5 0 0 0 2057.5 2823.5 Z M 2203 3517.6  L 2210 3510  L 2203 3502.4  L 2203 3517.6  Z " fill-rule="nonzero" fill="#0099cc" stroke="none" />
</svg>