<?xml version="1.0" encoding="utf-8"?>
<svg version="1.1" xmlns:xlink="http://www.w3.org/1999/xlink" width="20px" height="20px" preserveAspectRatio="xMinYMid meet" viewBox="1825 3401  20 18" xmlns="http://www.w3.org/2000/svg">
  <path d="M 875 2735  L 1307 2735  A 3 3 0 0 1 1310 2732 A 3 3 0 0 1 1313 2735 L 1325 2735  A 5 5 0 0 1 1330 2740 L 1330 3155  A 5 5 0 0 0 1335 3160 L 1815 3160  A 5 5 0 0 1 1820 3165 L 1820 3405  A 5 5 0 0 0 1825 3410 L 1834 3410  " stroke-width="2" stroke="#0099cc" fill="none" />
  <path d="M 876.5 2731.5  A 3.5 3.5 0 0 0 873 2735 A 3.5 3.5 0 0 0 876.5 2738.5 A 3.5 3.5 0 0 0 880 2735 A 3.5 3.5 0 0 0 876.5 2731.5 Z M 1833 3417.6  L 1840 3410  L 1833 3402.4  L 1833 3417.6  Z " fill-rule="nonzero" fill="#0099cc" stroke="none" />
</svg>