<?xml version="1.0" encoding="utf-8"?>
<svg version="1.1" xmlns:xlink="http://www.w3.org/1999/xlink" width="10px" height="75px" preserveAspectRatio="xMidYMin meet" viewBox="2849 3760  8 75" xmlns="http://www.w3.org/2000/svg">
  <path d="M 2853 3762  L 2853 3825  A 5 5 0 0 0 2858 3830 L 3367 3830  A 5 5 0 0 0 3372 3825 L 3372 3821  " stroke-width="2" stroke="#0099cc" fill="none" />
  <path d="M 2853 3760  A 3.5 3.5 0 0 0 2849.5 3763.5 A 3.5 3.5 0 0 0 2853 3767 A 3.5 3.5 0 0 0 2856.5 3763.5 A 3.5 3.5 0 0 0 2853 3760 Z M 3379.6 3822  L 3372 3815  L 3364.4 3822  L 3379.6 3822  Z " fill-rule="nonzero" fill="#0099cc" stroke="none" />
</svg>