<?xml version="1.0" encoding="utf-8"?>
<svg version="1.1" xmlns:xlink="http://www.w3.org/1999/xlink" width="20px" height="20px" preserveAspectRatio="xMinYMid meet" viewBox="3027 3486  20 18" xmlns="http://www.w3.org/2000/svg">
  <path d="M 3497 3224  L 3055 3224  A 5 5 0 0 0 3050 3229 L 3050 3490  A 5 5 0 0 1 3045 3495 L 3038 3495  " stroke-width="2" stroke="#0099cc" fill="none" />
  <path d="M 3495.5 3220.5  A 3.5 3.5 0 0 0 3492 3224 A 3.5 3.5 0 0 0 3495.5 3227.5 A 3.5 3.5 0 0 0 3499 3224 A 3.5 3.5 0 0 0 3495.5 3220.5 Z M 3039 3487.4  L 3032 3495  L 3039 3502.6  L 3039 3487.4  Z " fill-rule="nonzero" fill="#0099cc" stroke="none" />
</svg>