<?xml version="1.0" encoding="utf-8"?>
<svg version="1.1" xmlns:xlink="http://www.w3.org/1999/xlink" width="93px" height="10px" preserveAspectRatio="xMinYMid meet" viewBox="3615 4848  93 8" xmlns="http://www.w3.org/2000/svg">
  <path d="M 3620 4844  L 3620 4847  A 5 5 0 0 0 3625 4852 L 3698 4852  A 5 5 0 0 1 3703 4857 A 3 3 0 0 1 3706 4860 A 3 3 0 0 1 3703 4863 L 3703 4917  A 5 5 0 0 0 3708 4922 L 4084 4922  A 5 5 0 0 1 4089 4927 L 4089 4963  " stroke-width="2" stroke="#3399ff" fill="none" />
  <path d="M 3620 4842  A 3.5 3.5 0 0 0 3616.5 4845.5 A 3.5 3.5 0 0 0 3620 4849 A 3.5 3.5 0 0 0 3623.5 4845.5 A 3.5 3.5 0 0 0 3620 4842 Z M 4093.29289321881 4957.89289321881  L 4089 4962.18578643763  L 4084.70710678119 4957.89289321881  L 4083.29289321881 4959.30710678119  L 4088.29289321881 4964.30710678119  L 4089 4965.01421356237  L 4089.70710678119 4964.30710678119  L 4094.70710678119 4959.30710678119  L 4093.29289321881 4957.89289321881  Z " fill-rule="nonzero" fill="#3399ff" stroke="none" />
</svg>