<?xml version="1.0" encoding="utf-8"?>
<svg version="1.1" xmlns:xlink="http://www.w3.org/1999/xlink" width="10px" height="33px" preserveAspectRatio="xMidYMin meet" viewBox="1935 3802  8 33" xmlns="http://www.w3.org/2000/svg">
  <path d="M 1539 3817  L 1539 3825  A 5 5 0 0 0 1544 3830 L 1934 3830  A 5 5 0 0 0 1939 3825 L 1939 3804  " stroke-width="2" stroke="#3399ff" fill="none" />
  <path d="M 1539 3815  A 3.5 3.5 0 0 0 1535.5 3818.5 A 3.5 3.5 0 0 0 1539 3822 A 3.5 3.5 0 0 0 1542.5 3818.5 A 3.5 3.5 0 0 0 1539 3815 Z M 1934.70710678119 3809.10710678119  L 1939 3804.81421356237  L 1943.29289321881 3809.10710678119  L 1944.70710678119 3807.69289321881  L 1939.70710678119 3802.69289321881  L 1939 3801.98578643763  L 1938.29289321881 3802.69289321881  L 1933.29289321881 3807.69289321881  L 1934.70710678119 3809.10710678119  Z " fill-rule="nonzero" fill="#3399ff" stroke="none" />
</svg>