<?xml version="1.0" encoding="utf-8"?>
<svg version="1.1" xmlns:xlink="http://www.w3.org/1999/xlink" width="17px" height="10px" preserveAspectRatio="xMinYMid meet" viewBox="2655 2811  17 8" xmlns="http://www.w3.org/2000/svg">
  <path d="M 2425 3055  L 2655 3055  A 5 5 0 0 0 2660 3050 L 2660 2820  A 5 5 0 0 1 2665 2815 L 2666 2815  " stroke-width="2" stroke="#0099cc" fill="none" />
  <path d="M 2426.5 3051.5  A 3.5 3.5 0 0 0 2423 3055 A 3.5 3.5 0 0 0 2426.5 3058.5 A 3.5 3.5 0 0 0 2430 3055 A 3.5 3.5 0 0 0 2426.5 3051.5 Z M 2665 2822.6  L 2672 2815  L 2665 2807.4  L 2665 2822.6  Z " fill-rule="nonzero" fill="#0099cc" stroke="none" />
</svg>