<?xml version="1.0" encoding="utf-8"?>
<svg version="1.1" xmlns:xlink="http://www.w3.org/1999/xlink" width="10px" height="12px" preserveAspectRatio="xMidYMin meet" viewBox="2466 5781  8 12" xmlns="http://www.w3.org/2000/svg">
  <path d="M 2406 5788  L 2469 5788  A 1 1 0 0 0 2470 5787 A 1 1 0 0 1 2471 5786 L 2486 5786  " stroke-width="2" stroke="#3399ff" fill="none" />
  <path d="M 2407.5 5784.5  A 3.5 3.5 0 0 0 2404 5788 A 3.5 3.5 0 0 0 2407.5 5791.5 A 3.5 3.5 0 0 0 2411 5788 A 3.5 3.5 0 0 0 2407.5 5784.5 Z M 2480.89289321881 5781.70710678119  L 2485.18578643763 5786  L 2480.89289321881 5790.29289321881  L 2482.30710678119 5791.70710678119  L 2487.30710678119 5786.70710678119  L 2488.01421356237 5786  L 2487.30710678119 5785.29289321881  L 2482.30710678119 5780.29289321881  L 2480.89289321881 5781.70710678119  Z " fill-rule="nonzero" fill="#3399ff" stroke="none" />
</svg>