<?xml version="1.0" encoding="utf-8"?>
<svg version="1.1" xmlns:xlink="http://www.w3.org/1999/xlink" width="21px" height="20px" preserveAspectRatio="xMinYMid meet" viewBox="2397 6896  21 18" xmlns="http://www.w3.org/2000/svg">
  <path d="M 2406 6905  L 2455 6905  A 5 5 0 0 0 2460 6900 L 2460 6866  A 5 5 0 0 1 2465 6861 L 2474 6861  " stroke-width="2" stroke="#3399ff" fill="none" />
  <path d="M 2407.5 6901.5  A 3.5 3.5 0 0 0 2404 6905 A 3.5 3.5 0 0 0 2407.5 6908.5 A 3.5 3.5 0 0 0 2411 6905 A 3.5 3.5 0 0 0 2407.5 6901.5 Z M 2468.89289321881 6856.70710678119  L 2473.18578643763 6861  L 2468.89289321881 6865.29289321881  L 2470.30710678119 6866.70710678119  L 2475.30710678119 6861.70710678119  L 2476.01421356237 6861  L 2475.30710678119 6860.29289321881  L 2470.30710678119 6855.29289321881  L 2468.89289321881 6856.70710678119  Z " fill-rule="nonzero" fill="#3399ff" stroke="none" />
</svg>