<?xml version="1.0" encoding="utf-8"?>
<svg version="1.1" xmlns:xlink="http://www.w3.org/1999/xlink" width="20px" height="21px" preserveAspectRatio="xMidYMin meet" viewBox="2381 3703  18 21" xmlns="http://www.w3.org/2000/svg">
  <path d="M 2390 3715  L 2390 3585  A 5 5 0 0 1 2395 3580 L 2655 3580  A 5 5 0 0 0 2660 3575 L 2660 3515  A 5 5 0 0 1 2665 3510 L 2666 3510  " stroke-width="2" stroke="#0099cc" fill="none" />
  <path d="M 2390 3710  A 3.5 3.5 0 0 0 2386.5 3713.5 A 3.5 3.5 0 0 0 2390 3717 A 3.5 3.5 0 0 0 2393.5 3713.5 A 3.5 3.5 0 0 0 2390 3710 Z M 2665 3517.6  L 2672 3510  L 2665 3502.4  L 2665 3517.6  Z " fill-rule="nonzero" fill="#0099cc" stroke="none" />
</svg>