<?xml version="1.0" encoding="utf-8"?>
<svg version="1.1" xmlns:xlink="http://www.w3.org/1999/xlink" width="10px" height="30px" preserveAspectRatio="xMidYMin meet" viewBox="1600 5785  8 30" xmlns="http://www.w3.org/2000/svg">
  <path d="M 1252 5802  L 1252 5805  A 5 5 0 0 0 1257 5810 L 1599 5810  A 5 5 0 0 0 1604 5805 L 1604 5787  " stroke-width="2" stroke="#3399ff" fill="none" />
  <path d="M 1252 5800  A 3.5 3.5 0 0 0 1248.5 5803.5 A 3.5 3.5 0 0 0 1252 5807 A 3.5 3.5 0 0 0 1255.5 5803.5 A 3.5 3.5 0 0 0 1252 5800 Z M 1599.70710678119 5792.10710678119  L 1604 5787.81421356237  L 1608.29289321881 5792.10710678119  L 1609.70710678119 5790.69289321881  L 1604.70710678119 5785.69289321881  L 1604 5784.98578643763  L 1603.29289321881 5785.69289321881  L 1598.29289321881 5790.69289321881  L 1599.70710678119 5792.10710678119  Z " fill-rule="nonzero" fill="#3399ff" stroke="none" />
</svg>