<?xml version="1.0" encoding="utf-8"?>
<svg version="1.1" xmlns:xlink="http://www.w3.org/1999/xlink" width="31px" height="10px" preserveAspectRatio="xMinYMid meet" viewBox="874 2943  31 8" xmlns="http://www.w3.org/2000/svg">
  <path d="M 876 2947  L 895 2947  A 5 5 0 0 0 900 2942 L 900 2693  A 3 3 0 0 0 903 2690 A 3 3 0 0 0 900 2687 L 900 2651  A 3 3 0 0 0 903 2648 A 3 3 0 0 0 900 2645 L 900 2395  A 5 5 0 0 1 905 2390 L 3615 2390  A 5 5 0 0 1 3620 2395 L 3620 2695  A 5 5 0 0 0 3625 2700 L 3664 2700  " stroke-width="2" stroke="#0099cc" fill="none" />
  <path d="M 877.5 2943.5  A 3.5 3.5 0 0 0 874 2947 A 3.5 3.5 0 0 0 877.5 2950.5 A 3.5 3.5 0 0 0 881 2947 A 3.5 3.5 0 0 0 877.5 2943.5 Z M 3663 2707.6  L 3670 2700  L 3663 2692.4  L 3663 2707.6  Z " fill-rule="nonzero" fill="#0099cc" stroke="none" />
</svg>