<?xml version="1.0" encoding="utf-8"?>
<svg version="1.1" xmlns:xlink="http://www.w3.org/1999/xlink" width="33px" height="42px" xmlns="http://www.w3.org/2000/svg">
  <g transform="matrix(1 0 0 1 -40 -124 )">
    <path d="M 16.57298676 7.827201984  C 15.28135422 7.827201984  14.128010325 6.590290896  14.128010325 5.196804606  C 14.128010325 3.803318316  15.28119330375 2.566407228  16.57298676 2.566407228  C 18.01071355875 2.566407228  19.017963195 3.803318316  19.017963195 5.196804606  C 19.017963195 6.895657524  17.86478021625 7.827201984  16.57298676 7.827201984  Z M 23.32361955 3.803441208  C 22.60859860875 3.803441208  22.17043657125 3.184965168  22.17043657125 2.56653012  C 22.17043657125 1.329619032  21.16322715375 0.249365004  19.8716348325 0.249365004  L 13.11339756375 0.249365004  C 11.82176502375 0.249365004  10.814595825 1.329700932  10.814595825 2.56653012  C 10.814595825 3.341458428  10.23794396625 3.803441208  9.66141284625 3.803441208  L 8.8002574275 3.803441208  C 8.08523648625 3.803441208  7.64707444875 4.421917248  7.64707444875 5.040352296  L 7.64707444875 8.75100366  C 7.64707444875 9.525931968  8.2237263075 9.987914748  8.8002574275 10  L 24.03908298 10  C 24.75410392125 9.987914748  25.19226595875 9.369438708  25.19226595875 8.75100366  L 25.19226595875 5.040352296  C 25.19226595875 4.265423988  24.6156141 3.803441208  24.03908298 3.803441208  L 23.32406203875 3.803441208  Z M 28.35970693875 19.734207276  L 15.56589804 35.829414138  C 15.28147495875 36.291274026  14.41271506125 36.1425645  13.98203676375 35.672797986  L 5.3555151375 28.094961048  C 5.20946113875 27.938344896  5.07109205625 27.63310116  5.3555151375 27.476485008  L 6.93937641375 25.46456367  C 7.0854304125 25.307947518  7.36993401375 25.307947518  7.5160282725 25.46456367  L 14.27426554125 31.343752524  C 14.5586886225 31.500368676  14.8509174 31.500368676  15.13542096 31.187136372  L 25.76871672375 17.260426008  C 25.9147707225 16.947275646  26.19927432375 16.947275646  26.3453685825 17.103809856  L 28.35970698 18.959196984  C 28.64413006125 19.115813136  28.79026458 19.272347346  28.35970698 19.734125292  Z M 28.35970693875 6.590331846  L 28.35970693875 12.00757887  C 28.35970693875 12.782507178  27.78305508 13.244489958  27.20652396 13.244489958  L 5.78603251875 13.40110611  C 5.0710115775 13.40110611  4.63284954 12.78263007  4.63284954 12.164195022  L 4.63284954 6.746947998  C 4.63284954 5.97201969  4.05619768125 5.51003691  3.47966656125 5.51003691  L 2.76464562 5.51003691  C 0.896321002500001 5.353420758  0.0350851462500012 6.590372838  0 8.296927548  L 0 38.467554342  C 0.0350851462500012 39.86099964  1.32671768625 41.716304868  3.05667318 41  L 29.93604417375 41  C 31.3737709725 41.716304868  32.9576322075 40.01745195  33 38.467554342  L 33 8.132527704  C 32.9576322075 6.739082406  31.95042279 5.345637066  30.3666017325 5.345637066  L 29.65158079125 5.345637066  C 28.93655985 5.3535027  28.35994825125 5.81544453  28.35994825125 6.590331846  Z " fill-rule="nonzero" fill="#000000" stroke="none" transform="matrix(1 0 0 1 40 124 )" />
  </g>
</svg>