<?xml version="1.0" encoding="utf-8"?>
<svg version="1.1" xmlns:xlink="http://www.w3.org/1999/xlink" width="80px" height="10px" preserveAspectRatio="xMinYMid meet" viewBox="865 3496  80 8" xmlns="http://www.w3.org/2000/svg">
  <path d="M 867.5 3505  A 2.5 2.5 0 0 0 870 3502.5 A 2.5 2.5 0 0 1 872.5 3500 L 935 3500  A 5 5 0 0 1 940 3505 L 940 3975  A 5 5 0 0 0 945 3980 L 3808 3980  A 5 5 0 0 0 3813 3975 L 3813 3821  " stroke-width="2" stroke="#0099cc" fill="none" />
  <path d="M 869.293390227249 3500.74176677337  A 3.5 3.5 0 0 0 865.793390227249 3504.24176677337 A 3.5 3.5 0 0 0 869.293390227249 3507.74176677337 A 3.5 3.5 0 0 0 872.793390227249 3504.24176677337 A 3.5 3.5 0 0 0 869.293390227249 3500.74176677337 Z M 3820.6 3822  L 3813 3815  L 3805.4 3822  L 3820.6 3822  Z " fill-rule="nonzero" fill="#0099cc" stroke="none" />
</svg>