<?xml version="1.0" encoding="utf-8"?>
<svg version="1.1" xmlns:xlink="http://www.w3.org/1999/xlink" width="21px" height="20px" preserveAspectRatio="xMinYMid meet" viewBox="1690 459  21 18" xmlns="http://www.w3.org/2000/svg">
  <path d="M 1699 468  L 1735 468  A 5 5 0 0 1 1740 473 L 1740 1040  A 5 5 0 0 1 1735 1045 " stroke-width="2" stroke="#0099cc" fill="none" />
  <path d="M 1700.5 464.5  A 3.5 3.5 0 0 0 1697 468 A 3.5 3.5 0 0 0 1700.5 471.5 A 3.5 3.5 0 0 0 1704 468 A 3.5 3.5 0 0 0 1700.5 464.5 Z M 1737 1037.4  L 1730 1045  L 1737 1052.6  L 1737 1037.4  Z " fill-rule="nonzero" fill="#0099cc" stroke="none" />
</svg>