<?xml version="1.0" encoding="utf-8"?>
<svg version="1.1" xmlns:xlink="http://www.w3.org/1999/xlink" width="20px" height="20px" preserveAspectRatio="xMinYMid meet" viewBox="2565 1036  20 18" xmlns="http://www.w3.org/2000/svg">
  <path d="M 2539 468  L 2575 468  A 5 5 0 0 1 2580 473 L 2580 1040  A 5 5 0 0 1 2575 1045 " stroke-width="2" stroke="#0099cc" fill="none" />
  <path d="M 2540.5 464.5  A 3.5 3.5 0 0 0 2537 468 A 3.5 3.5 0 0 0 2540.5 471.5 A 3.5 3.5 0 0 0 2544 468 A 3.5 3.5 0 0 0 2540.5 464.5 Z M 2577 1037.4  L 2570 1045  L 2577 1052.6  L 2577 1037.4  Z " fill-rule="nonzero" fill="#0099cc" stroke="none" />
</svg>