<?xml version="1.0" encoding="utf-8"?>
<svg version="1.1" xmlns:xlink="http://www.w3.org/1999/xlink" width="21px" height="20px" preserveAspectRatio="xMinYMid meet" viewBox="893 92  21 18" xmlns="http://www.w3.org/2000/svg">
  <path d="M 902 101  L 915 101  A 5 5 0 0 0 920 96 L 920 45  A 5 5 0 0 1 925 40 L 1405 40  A 5 5 0 0 1 1410 45 L 1410 101  A 5 5 0 0 0 1415 106 L 1418 106  " stroke-width="2" stroke="#0099cc" fill="none" />
  <path d="M 903.5 97.5  A 3.5 3.5 0 0 0 900 101 A 3.5 3.5 0 0 0 903.5 104.5 A 3.5 3.5 0 0 0 907 101 A 3.5 3.5 0 0 0 903.5 97.5 Z M 1417 113.6  L 1424 106  L 1417 98.4  L 1417 113.6  Z " fill-rule="nonzero" fill="#0099cc" stroke="none" />
</svg>