<?xml version="1.0" encoding="utf-8"?>
<svg version="1.1" xmlns:xlink="http://www.w3.org/1999/xlink" width="27px" height="27px" xmlns="http://www.w3.org/2000/svg">
  <defs>
    <filter x="869px" y="821px" width="27px" height="27px" filterUnits="userSpaceOnUse" id="filter1048">
      <feOffset dx="1" dy="1" in="SourceAlpha" result="shadowOffsetInner" />
      <feGaussianBlur stdDeviation="2.5" in="shadowOffsetInner" result="shadowGaussian" />
      <feComposite in2="shadowGaussian" operator="atop" in="SourceAlpha" result="shadowComposite" />
      <feColorMatrix type="matrix" values="0 0 0 0 0  0 0 0 0 0  0 0 0 0 0  0 0 0 0.698039215686274 0  " in="shadowComposite" />
    </filter>
    <g id="widget1049">
      <path d="M 881.5 825  C 886.26 825  890 828.74  890 833.5  C 890 838.26  886.26 842  881.5 842  C 876.74 842  873 838.26  873 833.5  C 873 828.74  876.74 825  881.5 825  Z " fill-rule="nonzero" fill="#009dd9" stroke="none" />
      <path d="M 881.5 825.5  C 885.98 825.5  889.5 829.02  889.5 833.5  C 889.5 837.98  885.98 841.5  881.5 841.5  C 877.02 841.5  873.5 837.98  873.5 833.5  C 873.5 829.02  877.02 825.5  881.5 825.5  Z " stroke-width="1" stroke="#ffffff" fill="none" />
    </g>
  </defs>
  <g transform="matrix(1 0 0 1 -869 -821 )">
    <use xlink:href="#widget1049" filter="url(#filter1048)" />
    <use xlink:href="#widget1049" />
  </g>
</svg>