<?xml version="1.0" encoding="utf-8"?>
<svg version="1.1" xmlns:xlink="http://www.w3.org/1999/xlink" width="20px" height="20px" preserveAspectRatio="xMinYMid meet" viewBox="1425 1024  20 18" xmlns="http://www.w3.org/2000/svg">
  <path d="M 876 316  L 1365 316  A 5 5 0 0 1 1370 321 L 1370 1028  A 5 5 0 0 0 1375 1033 L 1434 1033  " stroke-width="2" stroke="#0099cc" fill="none" />
  <path d="M 877.5 312.5  A 3.5 3.5 0 0 0 874 316 A 3.5 3.5 0 0 0 877.5 319.5 A 3.5 3.5 0 0 0 881 316 A 3.5 3.5 0 0 0 877.5 312.5 Z M 1433 1040.6  L 1440 1033  L 1433 1025.4  L 1433 1040.6  Z " fill-rule="nonzero" fill="#0099cc" stroke="none" />
</svg>