<?xml version="1.0" encoding="utf-8"?>
<svg version="1.1" xmlns:xlink="http://www.w3.org/1999/xlink" width="21px" height="20px" preserveAspectRatio="xMinYMid meet" viewBox="1785 760  21 18" xmlns="http://www.w3.org/2000/svg">
  <path d="M 1794 769  L 1805 769  A 5 5 0 0 1 1810 774 L 1810 1717  A 5 5 0 0 1 1805 1722 " stroke-width="2" stroke="#0099cc" fill="none" />
  <path d="M 1795.5 765.5  A 3.5 3.5 0 0 0 1792 769 A 3.5 3.5 0 0 0 1795.5 772.5 A 3.5 3.5 0 0 0 1799 769 A 3.5 3.5 0 0 0 1795.5 765.5 Z M 1807 1714.4  L 1800 1722  L 1807 1729.6  L 1807 1714.4  Z " fill-rule="nonzero" fill="#0099cc" stroke="none" />
</svg>