<?xml version="1.0" encoding="utf-8"?>
<svg version="1.1" xmlns:xlink="http://www.w3.org/1999/xlink" width="21px" height="20px" preserveAspectRatio="xMinYMid meet" viewBox="2555 49  21 18" xmlns="http://www.w3.org/2000/svg">
  <path d="M 2564 58  L 2915 58  A 5 5 0 0 0 2920 53 L 2920 -5  A 5 5 0 0 1 2925 -10 L 4725 -10  A 5 5 0 0 1 4730 -5 L 4730 335  A 5 5 0 0 0 4735 340 " stroke-width="2" stroke="#0099cc" fill="none" />
  <path d="M 2565.5 54.5  A 3.5 3.5 0 0 0 2562 58 A 3.5 3.5 0 0 0 2565.5 61.5 A 3.5 3.5 0 0 0 2569 58 A 3.5 3.5 0 0 0 2565.5 54.5 Z M 4733 347.6  L 4740 340  L 4733 332.4  L 4733 347.6  Z " fill-rule="nonzero" fill="#0099cc" stroke="none" />
</svg>