<?xml version="1.0" encoding="utf-8"?>
<svg version="1.1" xmlns:xlink="http://www.w3.org/1999/xlink" width="20px" height="20px" preserveAspectRatio="xMinYMid meet" viewBox="701 2009  20 18" xmlns="http://www.w3.org/2000/svg">
  <path d="M 2330 2012  L 2330 2045  A 5 5 0 0 1 2325 2050 L 716 2050  A 5 5 0 0 1 711 2045 L 711 2019  " stroke-width="2" stroke="#0099cc" fill="none" />
  <path d="M 2330 2010  A 3.5 3.5 0 0 0 2326.5 2013.5 A 3.5 3.5 0 0 0 2330 2017 A 3.5 3.5 0 0 0 2333.5 2013.5 A 3.5 3.5 0 0 0 2330 2010 Z M 718.6 2020  L 711 2013  L 703.4 2020  L 718.6 2020  Z " fill-rule="nonzero" fill="#0099cc" stroke="none" />
</svg>