<?xml version="1.0" encoding="utf-8"?>
<svg version="1.1" xmlns:xlink="http://www.w3.org/1999/xlink" width="20px" height="20px" preserveAspectRatio="xMinYMid meet" viewBox="1725 1709  20 18" xmlns="http://www.w3.org/2000/svg">
  <path d="M 1651 277  L 1755 277  A 5 5 0 0 1 1760 282 L 1760 1713  A 5 5 0 0 1 1755 1718 L 1736 1718  " stroke-width="2" stroke="#0099cc" fill="none" />
  <path d="M 1652.5 273.5  A 3.5 3.5 0 0 0 1649 277 A 3.5 3.5 0 0 0 1652.5 280.5 A 3.5 3.5 0 0 0 1656 277 A 3.5 3.5 0 0 0 1652.5 273.5 Z M 1737 1710.4  L 1730 1718  L 1737 1725.6  L 1737 1710.4  Z " fill-rule="nonzero" fill="#0099cc" stroke="none" />
</svg>