<?xml version="1.0" encoding="utf-8"?>
<svg version="1.1" xmlns:xlink="http://www.w3.org/1999/xlink" width="10px" height="1451px" preserveAspectRatio="xMidYMin meet" viewBox="2596 272  8 1451" xmlns="http://www.w3.org/2000/svg">
  <path d="M 2491 277  L 2595 277  A 5 5 0 0 1 2600 282 L 2600 1713  A 5 5 0 0 1 2595 1718 L 2576 1718  " stroke-width="2" stroke="#0099cc" fill="none" />
  <path d="M 2492.5 273.5  A 3.5 3.5 0 0 0 2489 277 A 3.5 3.5 0 0 0 2492.5 280.5 A 3.5 3.5 0 0 0 2496 277 A 3.5 3.5 0 0 0 2492.5 273.5 Z M 2577 1710.4  L 2570 1718  L 2577 1725.6  L 2577 1710.4  Z " fill-rule="nonzero" fill="#0099cc" stroke="none" />
</svg>