<?xml version="1.0" encoding="utf-8"?>
<svg version="1.1" xmlns:xlink="http://www.w3.org/1999/xlink" width="40px" height="40px" xmlns="http://www.w3.org/2000/svg">
  <defs>
    <filter x="2606px" y="376px" width="40px" height="40px" filterUnits="userSpaceOnUse" id="filter1040">
      <feOffset dx="1" dy="1" in="SourceAlpha" result="shadowOffsetInner" />
      <feGaussianBlur stdDeviation="2.5" in="shadowOffsetInner" result="shadowGaussian" />
      <feComposite in2="shadowGaussian" operator="atop" in="SourceAlpha" result="shadowComposite" />
      <feColorMatrix type="matrix" values="0 0 0 0 0  0 0 0 0 0  0 0 0 0 0  0 0 0 0.698039215686274 0  " in="shadowComposite" />
    </filter>
    <g id="widget1041">
      <path d="M 2625 380  C 2633.4 380  2640 386.6  2640 395  C 2640 403.4  2633.4 410  2625 410  C 2616.6 410  2610 403.4  2610 395  C 2610 386.6  2616.6 380  2625 380  Z " fill-rule="nonzero" fill="#009dd9" stroke="none" />
      <path d="M 2625 380.5  C 2633.12 380.5  2639.5 386.88  2639.5 395  C 2639.5 403.12  2633.12 409.5  2625 409.5  C 2616.88 409.5  2610.5 403.12  2610.5 395  C 2610.5 386.88  2616.88 380.5  2625 380.5  Z " stroke-width="1" stroke="#ffffff" fill="none" />
    </g>
  </defs>
  <g transform="matrix(1 0 0 1 -2606 -376 )">
    <use xlink:href="#widget1041" filter="url(#filter1040)" />
    <use xlink:href="#widget1041" />
  </g>
</svg>