<?xml version="1.0" encoding="utf-8"?>
<svg version="1.1" xmlns:xlink="http://www.w3.org/1999/xlink" width="20px" height="20px" xmlns="http://www.w3.org/2000/svg">
  <g transform="matrix(1 0 0 1 -18 -14 )">
    <path d="M 28 15  C 33.04 15  37 18.96  37 24  C 37 29.04  33.04 33  28 33  C 22.96 33  19 29.04  19 24  C 19 18.96  22.96 15  28 15  Z " fill-rule="nonzero" fill="#ffffff" stroke="none" />
    <path d="M 28 15  C 33.04 15  37 18.96  37 24  C 37 29.04  33.04 33  28 33  C 22.96 33  19 29.04  19 24  C 19 18.96  22.96 15  28 15  Z " stroke-width="2" stroke="#797979" fill="none" />
  </g>
</svg>