<?xml version="1.0" encoding="utf-8"?>
<svg version="1.1" xmlns:xlink="http://www.w3.org/1999/xlink" width="40px" height="40px" xmlns="http://www.w3.org/2000/svg">
  <defs>
    <filter x="1766px" y="376px" width="40px" height="40px" filterUnits="userSpaceOnUse" id="filter82">
      <feOffset dx="1" dy="1" in="SourceAlpha" result="shadowOffsetInner" />
      <feGaussianBlur stdDeviation="2.5" in="shadowOffsetInner" result="shadowGaussian" />
      <feComposite in2="shadowGaussian" operator="atop" in="SourceAlpha" result="shadowComposite" />
      <feColorMatrix type="matrix" values="0 0 0 0 0  0 0 0 0 0  0 0 0 0 0  0 0 0 0.698039215686274 0  " in="shadowComposite" />
    </filter>
    <g id="widget83">
      <path d="M 1785 380  C 1793.4 380  1800 386.6  1800 395  C 1800 403.4  1793.4 410  1785 410  C 1776.6 410  1770 403.4  1770 395  C 1770 386.6  1776.6 380  1785 380  Z " fill-rule="nonzero" fill="#009dd9" stroke="none" />
      <path d="M 1785 380.5  C 1793.12 380.5  1799.5 386.88  1799.5 395  C 1799.5 403.12  1793.12 409.5  1785 409.5  C 1776.88 409.5  1770.5 403.12  1770.5 395  C 1770.5 386.88  1776.88 380.5  1785 380.5  Z " stroke-width="1" stroke="#ffffff" fill="none" />
    </g>
  </defs>
  <g transform="matrix(1 0 0 1 -1766 -376 )">
    <use xlink:href="#widget83" filter="url(#filter82)" />
    <use xlink:href="#widget83" />
  </g>
</svg>