<?xml version="1.0" encoding="utf-8"?>
<svg version="1.1" xmlns:xlink="http://www.w3.org/1999/xlink" width="10px" height="614px" preserveAspectRatio="xMidYMin meet" viewBox="516 391  8 614" xmlns="http://www.w3.org/2000/svg">
  <path d="M 549 396  L 525 396  A 5 5 0 0 0 520 401 L 520 995  A 5 5 0 0 0 525 1000 L 525 1000  " stroke-width="2" stroke="#0099cc" fill="none" />
  <path d="M 547.5 392.5  A 3.5 3.5 0 0 0 544 396 A 3.5 3.5 0 0 0 547.5 399.5 A 3.5 3.5 0 0 0 551 396 A 3.5 3.5 0 0 0 547.5 392.5 Z M 524 1007.6  L 531 1000  L 524 992.4  L 524 1007.6  Z " fill-rule="nonzero" fill="#0099cc" stroke="none" />
</svg>