<?xml version="1.0" encoding="utf-8"?>
<svg version="1.1" xmlns:xlink="http://www.w3.org/1999/xlink" width="66px" height="66px" xmlns="http://www.w3.org/2000/svg">
  <g transform="matrix(1 0 0 1 -2357 -3022 )">
    <path d="M 2390 3022  C 2408.48 3022  2423 3036.52  2423 3055  C 2423 3073.48  2408.48 3088  2390 3088  C 2371.52 3088  2357 3073.48  2357 3055  C 2357 3036.52  2371.52 3022  2390 3022  Z " fill-rule="nonzero" fill="#ffffff" stroke="none" fill-opacity="0.803921568627451" />
    <path d="M 2390 3022.5  C 2408.2 3022.5  2422.5 3036.8  2422.5 3055  C 2422.5 3073.2  2408.2 3087.5  2390 3087.5  C 2371.8 3087.5  2357.5 3073.2  2357.5 3055  C 2357.5 3036.8  2371.8 3022.5  2390 3022.5  Z " stroke-width="1" stroke="#ffffff" fill="none" />
  </g>
</svg>