<?xml version="1.0" encoding="utf-8"?>
<svg version="1.1" xmlns:xlink="http://www.w3.org/1999/xlink" width="68px" height="10px" preserveAspectRatio="xMinYMid meet" viewBox="2537 409  68 8" xmlns="http://www.w3.org/2000/svg">
  <path d="M 2539 413  L 2595 413  A 5 5 0 0 0 2600 408 L 2600 327  A 5 5 0 0 1 2605 322 L 2924 322  " stroke-width="2" stroke="#0099cc" fill="none" />
  <path d="M 2540.5 409.5  A 3.5 3.5 0 0 0 2537 413 A 3.5 3.5 0 0 0 2540.5 416.5 A 3.5 3.5 0 0 0 2544 413 A 3.5 3.5 0 0 0 2540.5 409.5 Z M 2923 329.6  L 2930 322  L 2923 314.4  L 2923 329.6  Z " fill-rule="nonzero" fill="#0099cc" stroke="none" />
</svg>