<?xml version="1.0" encoding="utf-8"?>
<svg version="1.1" xmlns:xlink="http://www.w3.org/1999/xlink" width="20px" height="20px" preserveAspectRatio="xMinYMid meet" viewBox="2075 313  20 18" xmlns="http://www.w3.org/2000/svg">
  <path d="M 1699 413  L 1755 413  A 5 5 0 0 0 1760 408 L 1760 327  A 5 5 0 0 1 1765 322 L 2084 322  " stroke-width="2" stroke="#0099cc" fill="none" />
  <path d="M 1700.5 409.5  A 3.5 3.5 0 0 0 1697 413 A 3.5 3.5 0 0 0 1700.5 416.5 A 3.5 3.5 0 0 0 1704 413 A 3.5 3.5 0 0 0 1700.5 409.5 Z M 2083 329.6  L 2090 322  L 2083 314.4  L 2083 329.6  Z " fill-rule="nonzero" fill="#0099cc" stroke="none" />
</svg>