<?xml version="1.0" encoding="utf-8"?>
<svg version="1.1" xmlns:xlink="http://www.w3.org/1999/xlink" width="30px" height="30px" xmlns="http://www.w3.org/2000/svg">
  <g transform="matrix(1 0 0 1 -2131 -9924 )">
    <path d="M 20.0057142857143 8  L 20.0057142857143 3.75214285714281  L 16.02 3.75214285714281  L 16.02 1.88142857142866  C 16.02 0.852857142857195  15.1242857142857 0.010714285714276  14.0271428571428 0.010714285714276  L 10.0414285714286 0.010714285714276  C 8.9464285714286 0.010714285714276  8.04857142857143 0.852857142857195  8.04857142857143 1.88142857142866  L 8.04857142857143 3.75214285714281  L 4.06285714285718 3.75214285714281  L 4.06285714285718 8  L 20.0057142857143 8  Z M 14.0271428571428 1.88571428571428  L 14.0271428571428 3.75214285714281  L 10.0414285714286 3.75214285714281  L 10.0414285714286 1.88571428571428  L 10.0457142857143 1.88142857142866  L 14.025 1.88142857142866  L 14.0271428571428 1.88571428571428  Z M 30 11.0164285714285  L 23.9914285714286 11.0164285714285  L 23.9914285714286 4.6885714285714  C 23.9914285714286 4.17428571428567  23.5435714285714 3.75214285714281  22.995 3.75214285714281  L 21.0021428571428 3.75214285714281  L 21.0021428571428 5.62285714285719  L 21.9985714285714 5.62285714285719  L 21.9985714285714 11  L 11 11  L 11 25.5492857142857  L 2 25.5492857142857  L 2 5.625  L 3.06642857142857 5.625  L 3.06642857142857 3.75214285714281  L 1.07357142857144 3.75214285714281  C 0.52500000000001 3.75214285714281  0.0771428571428601 4.17428571428567  0 4.6885714285714  L 0 26.4857142857143  C 0.0771428571428601 27  0.52500000000001 27.4221428571429  1.07357142857144 27.4221428571429  L 10.5857142857143 27.4221428571429  L 10.5857142857143 30  L 24.1735714285714 30  L 30 24.782142857143  L 30 11.0164285714285  Z M 27.1542857142857 24.8485714285714  L 24.2057142857143 27.2957142857144  L 24.2057142857143 24.8485714285714  L 27.1542857142857 24.8485714285714  Z M 28 13  L 28 22.9800000000001  L 22.215 22.9800000000001  L 22.215 28.0735714285714  L 13 28.0735714285714  L 13 13  L 28 13  Z " fill-rule="nonzero" fill="#000000" stroke="none" transform="matrix(1 0 0 1 2131 9924 )" />
  </g>
</svg>