<?xml version="1.0" encoding="utf-8"?>
<svg version="1.1" xmlns:xlink="http://www.w3.org/1999/xlink" width="15px" height="10px" preserveAspectRatio="xMinYMid meet" viewBox="3385 385  15 8" xmlns="http://www.w3.org/2000/svg">
  <path d="M 3292 614  L 3385 614  A 5 5 0 0 0 3390 609 L 3390 394  A 5 5 0 0 1 3395 389 " stroke-width="2" stroke="#0099cc" fill="none" />
  <path d="M 3293.5 610.5  A 3.5 3.5 0 0 0 3290 614 A 3.5 3.5 0 0 0 3293.5 617.5 A 3.5 3.5 0 0 0 3297 614 A 3.5 3.5 0 0 0 3293.5 610.5 Z M 3393 396.6  L 3400 389  L 3393 381.4  L 3393 396.6  Z " fill-rule="nonzero" fill="#0099cc" stroke="none" />
</svg>