<?xml version="1.0" encoding="utf-8"?>
<svg version="1.1" xmlns:xlink="http://www.w3.org/1999/xlink" width="20px" height="20px" preserveAspectRatio="xMinYMid meet" viewBox="2545 380  20 18" xmlns="http://www.w3.org/2000/svg">
  <path d="M 2452 614  L 2545 614  A 5 5 0 0 0 2550 609 L 2550 394  A 5 5 0 0 1 2555 389 " stroke-width="2" stroke="#0099cc" fill="none" />
  <path d="M 2453.5 610.5  A 3.5 3.5 0 0 0 2450 614 A 3.5 3.5 0 0 0 2453.5 617.5 A 3.5 3.5 0 0 0 2457 614 A 3.5 3.5 0 0 0 2453.5 610.5 Z M 2553 396.6  L 2560 389  L 2553 381.4  L 2553 396.6  Z " fill-rule="nonzero" fill="#0099cc" stroke="none" />
</svg>