<?xml version="1.0" encoding="utf-8"?>
<svg version="1.1" xmlns:xlink="http://www.w3.org/1999/xlink" width="28px" height="28px" xmlns="http://www.w3.org/2000/svg">
  <defs>
    <filter x="889px" y="264px" width="28px" height="28px" filterUnits="userSpaceOnUse" id="filter134">
      <feOffset dx="1" dy="1" in="SourceAlpha" result="shadowOffsetInner" />
      <feGaussianBlur stdDeviation="2.5" in="shadowOffsetInner" result="shadowGaussian" />
      <feComposite in2="shadowGaussian" operator="atop" in="SourceAlpha" result="shadowComposite" />
      <feColorMatrix type="matrix" values="0 0 0 0 0  0 0 0 0 0  0 0 0 0 0  0 0 0 0.698039215686274 0  " in="shadowComposite" />
    </filter>
    <g id="widget135">
      <path d="M 902 268  C 907.04 268  911 271.96  911 277  C 911 282.04  907.04 286  902 286  C 896.96 286  893 282.04  893 277  C 893 271.96  896.96 268  902 268  Z " fill-rule="nonzero" fill="#009dd9" stroke="none" />
      <path d="M 902 268.5  C 906.76 268.5  910.5 272.24  910.5 277  C 910.5 281.76  906.76 285.5  902 285.5  C 897.24 285.5  893.5 281.76  893.5 277  C 893.5 272.24  897.24 268.5  902 268.5  Z " stroke-width="1" stroke="#ffffff" fill="none" />
    </g>
  </defs>
  <g transform="matrix(1 0 0 1 -889 -264 )">
    <use xlink:href="#widget135" filter="url(#filter134)" />
    <use xlink:href="#widget135" />
  </g>
</svg>