<?xml version="1.0" encoding="utf-8"?>
<svg version="1.1" xmlns:xlink="http://www.w3.org/1999/xlink" width="28px" height="28px" xmlns="http://www.w3.org/2000/svg">
  <defs>
    <filter x="894px" y="264px" width="28px" height="28px" filterUnits="userSpaceOnUse" id="filter86">
      <feOffset dx="1" dy="1" in="SourceAlpha" result="shadowOffsetInner" />
      <feGaussianBlur stdDeviation="2.5" in="shadowOffsetInner" result="shadowGaussian" />
      <feComposite in2="shadowGaussian" operator="atop" in="SourceAlpha" result="shadowComposite" />
      <feColorMatrix type="matrix" values="0 0 0 0 0  0 0 0 0 0  0 0 0 0 0  0 0 0 0.698039215686274 0  " in="shadowComposite" />
    </filter>
    <g id="widget87">
      <path d="M 907 268  C 912.04 268  916 271.96  916 277  C 916 282.04  912.04 286  907 286  C 901.96 286  898 282.04  898 277  C 898 271.96  901.96 268  907 268  Z " fill-rule="nonzero" fill="#009dd9" stroke="none" />
      <path d="M 907 268.5  C 911.76 268.5  915.5 272.24  915.5 277  C 915.5 281.76  911.76 285.5  907 285.5  C 902.24 285.5  898.5 281.76  898.5 277  C 898.5 272.24  902.24 268.5  907 268.5  Z " stroke-width="1" stroke="#ffffff" fill="none" />
    </g>
  </defs>
  <g transform="matrix(1 0 0 1 -894 -264 )">
    <use xlink:href="#widget87" filter="url(#filter86)" />
    <use xlink:href="#widget87" />
  </g>
</svg>