<?xml version="1.0" encoding="utf-8"?>
<svg version="1.1" xmlns:xlink="http://www.w3.org/1999/xlink" width="20px" height="16px" xmlns="http://www.w3.org/2000/svg">
  <g transform="matrix(1 0 0 1 -3466 -201 )">
    <path d="M 20 4.27326060606061  C 19.9933658536585 3.58749090909091  19.4345365853659 3.03204848484849  18.7445853658537 3.03204848484848  L 16.2626341463415 3.03204848484848  C 15.7880975609756 3.03204848484848  15.3541463414634 2.76518787878788  15.1449756097561 2.34317575757576  L 14.3426341463415 0.742012121212121  C 14.1303414634146 0.32  13.699512195122 0.0531393939393941  13.2249756097561 0.0531393939393941  L 6.7750243902439 0.0531393939393941  C 6.30048780487805 0.0531393939393941  5.86965853658536 0.32  5.65736585365854 0.738909090909091  L 4.85190243902439 2.34317575757576  C 4.63960975609756 2.76518787878788  4.20878048780488 3.02894545454546  3.73424390243902 3.02894545454546  L 1.25541463414634 3.02894545454546  C 0.565463414634147 3.02894545454546  0.00663414634146355 3.58438787878788  0 4.27015757575758  L 0 14.7056484848485  C 0.00663414634146355 15.3914181818182  0.565463414634147 15.9468606060606  1.25541463414634 16  L 18.7414634146341 16  C 19.4314146341463 15.9468606060606  19.990243902439 15.3914181818182  20 14.7056484848485  L 20 4.27326060606061  Z M 14.992 8.99607272727273  C 14.992 11.7267393939394  12.7566829268293 13.9485090909091  10.0093658536585 13.9485090909091  C 7.26204878048781 13.9485090909091  5.02673170731707 11.7267393939394  5.02673170731707 8.99607272727273  C 5.02673170731707 6.26540606060606  7.26204878048781 4.04363636363637  10.0093658536585 4.04363636363637  C 12.7566829268293 4.04363636363637  14.992 6.26540606060606  14.992 8.99607272727273  Z M 17.9516097560976 5.27864242424242  C 17.948487804878 5.70065454545455  17.6050731707317 6.04509090909091  17.180487804878 6.04509090909091  C 16.7559024390244 6.04509090909091  16.4093658536585 5.70375757575758  16.4093658536585 5.27864242424242  C 16.4093658536585 4.8566303030303  16.7559024390244 4.51529696969697  17.180487804878 4.51529696969697  C 17.6050731707317 4.51529696969697  17.9516097560976 4.8566303030303  17.9516097560976 5.27864242424242  Z " fill-rule="nonzero" fill="#ffffff" stroke="none" transform="matrix(1 0 0 1 3466 201 )" />
  </g>
</svg>