<?xml version="1.0" encoding="utf-8"?>
<svg version="1.1" xmlns:xlink="http://www.w3.org/1999/xlink" width="31px" height="25px" xmlns="http://www.w3.org/2000/svg">
  <g transform="matrix(1 0 0 1 -567 -253 )">
    <path d="M 30.6580882352941 24.7100446428571  L 25.6775735294118 13.7998883928571  C 27.5723345588235 11.4015625  29.0275110294118 9.36584821428571  29.0275110294118 7.06294642857143  C 29.0275110294118 3.32232142857143  25.8183272058824 0.292075892857143  21.8555698529412 0.292075892857143  C 17.8928125 0.292075892857143  14.6836286764706 3.32444196428571  14.6836286764706 7.06294642857143  C 14.6836286764706 9.13046875  15.9309227941176 11.1046875  17.5615 13.2379464285714  L 15.5996102941177 13.8529017857143  L 11.7970955882353 12.6760044642857  C 12.2669963235294 11.90625  12.5679926470588 11.1598214285714  12.5679926470588 10.3561383928571  C 12.5679926470588 8.23348214285714  10.8139852941176 6.51372767857143  8.652875 6.51372767857143  C 6.48959926470588 6.51372767857143  4.73775735294118 8.23348214285714  4.73775735294118 10.3561383928571  C 4.73775735294118 11.2425223214286  5.1340330882353 12.1013392857143  5.707875 12.98984375  L 5.69055147058824 12.9919642857143  L 0.341911764705882 24.7100446428571  L 8.42333823529412 21.7243303571429  L 15.7771764705882 24.7100446428571  L 22.6806029411765 21.7243303571429  L 30.6580882352941 24.7100446428571  Z M 18.3757058823529 7.06294642857143  C 18.3757058823529 5.24564732142857  19.9326580882353 3.77399553571429  21.8577352941176 3.77399553571429  C 23.7806470588235 3.77399553571429  25.3397647058824 5.24564732142857  25.3397647058824 7.06294642857143  C 25.3397647058824 8.88024553571429  23.7784816176471 10.3540178571429  21.8577352941176 10.3540178571429  C 19.9326580882353 10.3540178571429  18.3757058823529 8.88024553571428  18.3757058823529 7.06294642857143  Z M 6.75378308823529 10.3561383928571  C 6.75378308823529 9.32555803571429  7.60480147058824 8.49006696428571  8.65504044117647 8.49006696428571  C 9.70311397058824 8.49006696428571  10.5562977941176 9.32555803571429  10.5562977941176 10.3561383928571  C 10.5562977941176 11.3845982142857  9.70311397058824 12.2222098214286  8.65504044117647 12.2222098214286  C 7.60480147058824 12.2222098214286  6.75378308823529 11.3845982142857  6.75378308823529 10.3561383928571  Z M 27.9642794117647 22.4453125  L 22.5420147058824 19.9494419642857  L 15.7728455882353 22.8206473214286  L 8.5575955882353 19.9494419642857  L 3.17647426470589 22.3498883928571  L 6.2600625 14.5590401785714  L 6.76244485294118 14.4657366071429  C 7.37526470588236 15.2672991071429  8.04438602941177 16.1133928571429  8.65504044117647 17.0527901785714  C 9.41511029411765 15.8631696428571  10.2141580882353 14.875  10.8962720588235 13.9674107142857  L 15.6039411764706 15.4475446428571  L 18.5511066176471 14.5081473214286  C 19.6294963235294 15.8631696428571  20.7901727941177 17.2924107142857  21.8555698529412 18.86796875  C 22.8538382352941 17.3666294642857  23.8867536764706 16.0561383928571  24.8547058823529 14.8410714285714  L 27.9642794117647 22.4453125  Z " fill-rule="nonzero" fill="#000000" stroke="none" transform="matrix(1 0 0 1 567 253 )" />
  </g>
</svg>