<?xml version="1.0" encoding="utf-8"?>
<svg version="1.1" xmlns:xlink="http://www.w3.org/1999/xlink" width="20px" height="20px" preserveAspectRatio="xMinYMid meet" viewBox="3895 996  20 18" xmlns="http://www.w3.org/2000/svg">
  <path d="M 3629 986  L 3895 986  A 5 5 0 0 1 3900 991 L 3900 1000  A 5 5 0 0 0 3905 1005 " stroke-width="2" stroke="#0099cc" fill="none" />
  <path d="M 3630.5 982.5  A 3.5 3.5 0 0 0 3627 986 A 3.5 3.5 0 0 0 3630.5 989.5 A 3.5 3.5 0 0 0 3634 986 A 3.5 3.5 0 0 0 3630.5 982.5 Z M 3903 1012.6  L 3910 1005  L 3903 997.4  L 3903 1012.6  Z " fill-rule="nonzero" fill="#0099cc" stroke="none" />
</svg>