<?xml version="1.0" encoding="utf-8"?>
<svg version="1.1" xmlns:xlink="http://www.w3.org/1999/xlink" width="10px" height="29px" preserveAspectRatio="xMidYMin meet" viewBox="3056 981  8 29" xmlns="http://www.w3.org/2000/svg">
  <path d="M 2789 986  L 3055 986  A 5 5 0 0 1 3060 991 L 3060 1000  A 5 5 0 0 0 3065 1005 " stroke-width="2" stroke="#0099cc" fill="none" />
  <path d="M 2790.5 982.5  A 3.5 3.5 0 0 0 2787 986 A 3.5 3.5 0 0 0 2790.5 989.5 A 3.5 3.5 0 0 0 2794 986 A 3.5 3.5 0 0 0 2790.5 982.5 Z M 3063 1012.6  L 3070 1005  L 3063 997.4  L 3063 1012.6  Z " fill-rule="nonzero" fill="#0099cc" stroke="none" />
</svg>