<?xml version="1.0" encoding="utf-8"?>
<svg version="1.1" xmlns:xlink="http://www.w3.org/1999/xlink" width="11px" height="11px" xmlns="http://www.w3.org/2000/svg">
  <g transform="matrix(1 0 0 1 -870 -1559 )">
    <path d="M 10.15974609375 9.32135416666667  C 10.3886979166667 9.55030598958333  10.3886979166667 9.9275  10.1580989583333 10.1580989583333  C 9.9275 10.3886979166667  9.55030598958333 10.3886979166667  9.31970703125 10.1580989583333  L 0.841901041666666 1.68029296875  C 0.611302083333333 1.44969401041667  0.611302083333333 1.0725  0.841901041666666 0.841901041666667  C 1.0725 0.611302083333334  1.44969401041667 0.611302083333334  1.68029296875 0.841901041666667  L 10.15974609375 9.32135416666667  Z M 9.32135416666667 0.84025390625  C 9.55030598958333 0.611302083333333  9.9275 0.611302083333333  10.1580989583333 0.841901041666666  C 10.3886979166667 1.0725  10.3886979166667 1.44969401041667  10.1580989583333 1.68029296875  L 1.68029296875 10.1580989583333  C 1.44969401041667 10.3886979166667  1.0725 10.3886979166667  0.841901041666667 10.1580989583333  C 0.611302083333334 9.9275  0.611302083333334 9.55030598958333  0.841901041666667 9.31970703125  L 9.32135416666667 0.84025390625  Z " fill-rule="nonzero" fill="#aaaaaa" stroke="none" transform="matrix(1 0 0 1 870 1559 )" />
  </g>
</svg>