<?xml version="1.0" encoding="utf-8"?>
<svg version="1.1" xmlns:xlink="http://www.w3.org/1999/xlink" width="21px" height="20px" preserveAspectRatio="xMinYMid meet" viewBox="518 1171  21 18" xmlns="http://www.w3.org/2000/svg">
  <path d="M 530 1180  L 525 1180  A 5 5 0 0 0 520 1185 L 520 1688  A 5 5 0 0 0 525 1693 L 525 1693  " stroke-width="2" stroke="#0099cc" fill="none" />
  <path d="M 528.5 1176.5  A 3.5 3.5 0 0 0 525 1180 A 3.5 3.5 0 0 0 528.5 1183.5 A 3.5 3.5 0 0 0 532 1180 A 3.5 3.5 0 0 0 528.5 1176.5 Z M 524 1700.6  L 531 1693  L 524 1685.4  L 524 1700.6  Z " fill-rule="nonzero" fill="#0099cc" stroke="none" />
</svg>