<?xml version="1.0" encoding="utf-8"?>
<svg version="1.1" xmlns:xlink="http://www.w3.org/1999/xlink" width="19px" height="19px" xmlns="http://www.w3.org/2000/svg">
  <g transform="matrix(1 0 0 1 -2026 -6279 )">
    <path d="M 0.0500000000000001 8.45  L 0.0500000000000001 0.0500000000000001  L 8.45 0.0500000000000001  L 8.45 8.45  L 0.0500000000000001 8.45  Z M 0.0500000000000001 18.95  L 0.0500000000000001 10.55  L 8.45 10.55  L 8.45 18.95  L 0.0500000000000001 18.95  Z M 10.55 8.45  L 10.55 0.0500000000000001  L 18.95 0.0500000000000001  L 18.95 8.45  L 10.55 8.45  Z M 10.55 18.95  L 10.55 10.55  L 12.65 10.55  L 12.65 18.95  L 10.55 18.95  Z M 13.7 18.95  L 13.7 12.65  L 15.8 12.65  L 15.8 18.95  L 13.7 18.95  Z M 16.85 18.95  L 16.85 10.55  L 18.95 10.55  L 18.95 18.95  L 16.85 18.95  Z " fill-rule="nonzero" fill="#ff9800" stroke="none" transform="matrix(1 0 0 1 2026 6279 )" />
  </g>
</svg>