<?xml version="1.0" encoding="utf-8"?>
<svg version="1.1" xmlns:xlink="http://www.w3.org/1999/xlink" width="19px" height="15px" xmlns="http://www.w3.org/2000/svg">
  <g transform="matrix(1 0 0 1 -1001 -201 )">
    <path d="M 5.77916666666667 3.046875  C 6.14861111111111 3.41145833333333  6.33333333333333 3.85416666666666  6.33333333333333 4.375  C 6.33333333333333 4.89583333333333  6.14861111111111 5.33854166666667  5.77916666666667 5.703125  C 5.40972222222222 6.06770833333333  4.96111111111111 6.25  4.43333333333333 6.25  C 3.90555555555556 6.25  3.45694444444444 6.06770833333333  3.0875 5.703125  C 2.71805555555556 5.33854166666667  2.53333333333333 4.89583333333333  2.53333333333333 4.375  C 2.53333333333333 3.85416666666666  2.71805555555556 3.41145833333333  3.0875 3.046875  C 3.45694444444444 2.68229166666666  3.90555555555556 2.5  4.43333333333333 2.5  C 4.96111111111111 2.5  5.40972222222222 2.68229166666666  5.77916666666667 3.046875  Z M 12.35 4.0625  L 16.4666666666667 8.125  L 16.4666666666667 12.5  L 2.53333333333333 12.5  L 2.53333333333333 10.625  L 5.7 7.5  L 7.28333333333333 9.0625  L 12.35 4.0625  Z M 17.6393229166667 1.3427734375  C 17.5766493055556 1.28092447916667  17.5024305555556 1.25  17.4166666666667 1.25  L 1.58333333333333 1.25  C 1.49756944444444 1.25  1.42335069444444 1.28092447916667  1.36067708333333 1.3427734375  C 1.29800347222222 1.40462239583333  1.26666666666667 1.47786458333333  1.26666666666667 1.5625  L 1.26666666666667 13.4375  C 1.26666666666667 13.5221354166667  1.29800347222222 13.5953776041667  1.36067708333333 13.6572265625  C 1.42335069444444 13.7190755208333  1.49756944444444 13.75  1.58333333333333 13.75  L 17.4166666666667 13.75  C 17.5024305555556 13.75  17.5766493055556 13.7190755208333  17.6393229166667 13.6572265625  C 17.7019965277778 13.5953776041667  17.7333333333333 13.5221354166667  17.7333333333333 13.4375  L 17.7333333333333 1.5625  C 17.7333333333333 1.47786458333333  17.7019965277778 1.40462239583333  17.6393229166667 1.3427734375  Z M 18.5348958333333 0.458984375000001  C 18.8449652777778 0.764973958333333  19 1.1328125  19 1.5625  L 19 13.4375  C 19 13.8671875  18.8449652777778 14.2350260416667  18.5348958333333 14.541015625  C 18.2248263888889 14.8470052083333  17.8520833333333 15  17.4166666666667 15  L 1.58333333333333 15  C 1.14791666666667 15  0.775173611111111 14.8470052083333  0.465104166666667 14.541015625  C 0.155034722222222 14.2350260416667  0 13.8671875  0 13.4375  L 0 1.5625  C 0 1.1328125  0.155034722222222 0.764973958333333  0.465104166666667 0.458984375000001  C 0.775173611111111 0.152994791666665  1.14791666666667 0  1.58333333333333 0  L 17.4166666666667 0  C 17.8520833333333 0  18.2248263888889 0.152994791666665  18.5348958333333 0.458984375000001  Z " fill-rule="nonzero" fill="#000000" stroke="none" transform="matrix(1 0 0 1 1001 201 )" />
  </g>
</svg>