<?xml version="1.0" encoding="utf-8"?>
<svg version="1.1" xmlns:xlink="http://www.w3.org/1999/xlink" width="14px" height="14px" xmlns="http://www.w3.org/2000/svg">
  <g transform="matrix(1 0 0 1 -997 -253 )">
    <path d="M 1004 253  C 1007.92 253  1011 256.08  1011 260  C 1011 263.92  1007.92 267  1004 267  C 1000.08 267  997 263.92  997 260  C 997 256.08  1000.08 253  1004 253  Z " fill-rule="nonzero" fill="#ffffff" stroke="none" />
    <path d="M 1004 253.5  C 1007.64 253.5  1010.5 256.36  1010.5 260  C 1010.5 263.64  1007.64 266.5  1004 266.5  C 1000.36 266.5  997.5 263.64  997.5 260  C 997.5 256.36  1000.36 253.5  1004 253.5  Z " stroke-width="1" stroke="#aeaeae" fill="none" />
  </g>
</svg>