<?xml version="1.0" encoding="utf-8"?>
<svg version="1.1" xmlns:xlink="http://www.w3.org/1999/xlink" width="215px" height="10px" preserveAspectRatio="xMinYMid meet" viewBox="1320 303  215 8" xmlns="http://www.w3.org/2000/svg">
  <path d="M 1322 307  L 1525 307  A 5 5 0 0 1 1530 312 L 1530 835  A 5 5 0 0 0 1535 840 L 1759 840  A 5 5 0 0 1 1764 845 L 1764 852  " stroke-width="2" stroke="#3399ff" fill="none" />
  <path d="M 1323.5 303.5  A 3.5 3.5 0 0 0 1320 307 A 3.5 3.5 0 0 0 1323.5 310.5 A 3.5 3.5 0 0 0 1327 307 A 3.5 3.5 0 0 0 1323.5 303.5 Z M 1768.29289321881 846.892893218813  L 1764 851.185786437627  L 1759.70710678119 846.892893218813  L 1758.29289321881 848.307106781187  L 1763.29289321881 853.307106781187  L 1764 854.014213562373  L 1764.70710678119 853.307106781187  L 1769.70710678119 848.307106781187  L 1768.29289321881 846.892893218813  Z " fill-rule="nonzero" fill="#3399ff" stroke="none" />
</svg>