<?xml version="1.0" encoding="utf-8"?>
<svg version="1.1" xmlns:xlink="http://www.w3.org/1999/xlink" width="20px" height="20px" preserveAspectRatio="xMinYMid meet" viewBox="1580 428  20 18" xmlns="http://www.w3.org/2000/svg">
  <path d="M 1292 261  A 5 5 0 0 1 1297 256 L 1565 256  A 5 5 0 0 1 1570 261 L 1570 432  A 5 5 0 0 0 1575 437 L 1590 437  " stroke-width="2" stroke="#3399ff" fill="none" />
  <path d="M 1292.22331755437 256.022398966693  A 3.5 3.5 0 0 0 1288.72331755437 259.522398966693 A 3.5 3.5 0 0 0 1292.22331755437 263.022398966693 A 3.5 3.5 0 0 0 1295.72331755437 259.522398966693 A 3.5 3.5 0 0 0 1292.22331755437 256.022398966693 Z M 1584.89289321881 432.707106781187  L 1589.18578643763 437  L 1584.89289321881 441.292893218813  L 1586.30710678119 442.707106781187  L 1591.30710678119 437.707106781187  L 1592.01421356237 437  L 1591.30710678119 436.292893218813  L 1586.30710678119 431.292893218813  L 1584.89289321881 432.707106781187  Z " fill-rule="nonzero" fill="#3399ff" stroke="none" />
</svg>