<?xml version="1.0" encoding="utf-8"?>
<svg version="1.1" xmlns:xlink="http://www.w3.org/1999/xlink" width="18px" height="10px" preserveAspectRatio="xMinYMid meet" viewBox="1095 590  18 8" xmlns="http://www.w3.org/2000/svg">
  <path d="M 855 617  L 855 625  A 5 5 0 0 0 860 630 L 1095 630  A 5 5 0 0 0 1100 625 L 1100 599  A 5 5 0 0 1 1105 594 L 1111 594  " stroke-width="2" stroke="#3399ff" fill="none" />
  <path d="M 855 615  A 3.5 3.5 0 0 0 851.5 618.5 A 3.5 3.5 0 0 0 855 622 A 3.5 3.5 0 0 0 858.5 618.5 A 3.5 3.5 0 0 0 855 615 Z M 1105.89289321881 589.707106781187  L 1110.18578643763 594  L 1105.89289321881 598.292893218813  L 1107.30710678119 599.707106781187  L 1112.30710678119 594.707106781187  L 1113.01421356237 594  L 1112.30710678119 593.292893218813  L 1107.30710678119 588.292893218813  L 1105.89289321881 589.707106781187  Z " fill-rule="nonzero" fill="#3399ff" stroke="none" />
</svg>