<?xml version="1.0" encoding="utf-8"?>
<svg version="1.1" xmlns:xlink="http://www.w3.org/1999/xlink" width="10px" height="1182px" preserveAspectRatio="xMidYMin meet" viewBox="1506 338  8 1182" xmlns="http://www.w3.org/2000/svg">
  <path d="M 1303 343  L 1505 343  A 5 5 0 0 1 1510 348 L 1510 1510  A 5 5 0 0 0 1515 1515 L 2058 1515  A 5 5 0 0 1 2063 1520 L 2063 1539  " stroke-width="2" stroke="#3399ff" fill="none" />
  <path d="M 1304.5 339.5  A 3.5 3.5 0 0 0 1301 343 A 3.5 3.5 0 0 0 1304.5 346.5 A 3.5 3.5 0 0 0 1308 343 A 3.5 3.5 0 0 0 1304.5 339.5 Z M 2067.29289321881 1533.89289321881  L 2063 1538.18578643763  L 2058.70710678119 1533.89289321881  L 2057.29289321881 1535.30710678119  L 2062.29289321881 1540.30710678119  L 2063 1541.01421356237  L 2063.70710678119 1540.30710678119  L 2068.70710678119 1535.30710678119  L 2067.29289321881 1533.89289321881  Z " fill-rule="nonzero" fill="#3399ff" stroke="none" />
</svg>