<?xml version="1.0" encoding="utf-8"?>
<svg version="1.1" xmlns:xlink="http://www.w3.org/1999/xlink" width="10px" height="93px" preserveAspectRatio="xMidYMin meet" viewBox="1166 199  8 93" xmlns="http://www.w3.org/2000/svg">
  <path d="M 1011.64233821767 202.855109409209  A 3 3 0 0 0 1014 204 L 1165 204  A 5 5 0 0 1 1170 209 L 1170 282  A 5 5 0 0 0 1175 287 L 1186 287  " stroke-width="2" stroke="#3399ff" fill="none" />
  <path d="M 1012.82034396067 200.258334937761  A 3.5 3.5 0 0 0 1009.32034396067 203.758334937761 A 3.5 3.5 0 0 0 1012.82034396067 207.258334937761 A 3.5 3.5 0 0 0 1016.32034396067 203.758334937761 A 3.5 3.5 0 0 0 1012.82034396067 200.258334937761 Z M 1180.89289321881 282.707106781187  L 1185.18578643763 287  L 1180.89289321881 291.292893218813  L 1182.30710678119 292.707106781187  L 1187.30710678119 287.707106781187  L 1188.01421356237 287  L 1187.30710678119 286.292893218813  L 1182.30710678119 281.292893218813  L 1180.89289321881 282.707106781187  Z " fill-rule="nonzero" fill="#3399ff" stroke="none" />
</svg>