<?xml version="1.0" encoding="utf-8"?>
<svg version="1.1" xmlns:xlink="http://www.w3.org/1999/xlink" width="10px" height="145px" preserveAspectRatio="xMidYMin meet" viewBox="150 218  8 145" xmlns="http://www.w3.org/2000/svg">
  <path d="M 154 220  L 154 353  A 5 5 0 0 0 159 358 L 951 358  " stroke-width="2" stroke="#3399ff" fill="none" />
  <path d="M 154 218  A 3.5 3.5 0 0 0 150.5 221.5 A 3.5 3.5 0 0 0 154 225 A 3.5 3.5 0 0 0 157.5 221.5 A 3.5 3.5 0 0 0 154 218 Z M 945.892893218813 353.707106781187  L 950.185786437627 358  L 945.892893218813 362.292893218813  L 947.307106781187 363.707106781187  L 952.307106781187 358.707106781187  L 953.014213562373 358  L 952.307106781187 357.292893218813  L 947.307106781187 352.292893218813  L 945.892893218813 353.707106781187  Z " fill-rule="nonzero" fill="#3399ff" stroke="none" />
</svg>