<?xml version="1.0" encoding="utf-8"?>
<svg version="1.1" xmlns:xlink="http://www.w3.org/1999/xlink" width="18px" height="18px" xmlns="http://www.w3.org/2000/svg">
  <g transform="matrix(1 0 0 1 -995 -392 )">
    <path d="M 1004 392  C 1009.04 392  1013 395.96  1013 401  C 1013 406.04  1009.04 410  1004 410  C 998.96 410  995 406.04  995 401  C 995 395.96  998.96 392  1004 392  Z " fill-rule="nonzero" fill="#bcbcbc" stroke="none" />
    <path d="M 1004 392.5  C 1008.76 392.5  1012.5 396.24  1012.5 401  C 1012.5 405.76  1008.76 409.5  1004 409.5  C 999.24 409.5  995.5 405.76  995.5 401  C 995.5 396.24  999.24 392.5  1004 392.5  Z " stroke-width="1" stroke="#aeaeae" fill="none" />
  </g>
</svg>