<?xml version="1.0" encoding="utf-8"?>
<svg version="1.1" xmlns:xlink="http://www.w3.org/1999/xlink" width="5px" height="10px" xmlns="http://www.w3.org/2000/svg">
  <g transform="matrix(1 0 0 1 -871 -208 )">
    <path d="M 4.91408934707906 4.7695390781563  C 4.97136311569302 4.83633934535737  5 4.9131596526386  5 5  C 5 5.0868403473614  4.97136311569302 5.16366065464263  4.91408934707906 5.2304609218437  L 0.910652920962178 9.89979959919839  C 0.853379152348215 9.96659986639946  0.787514318442154 10  0.713058419243993 10  C 0.638602520045832 10  0.57273768613977 9.96659986639946  0.515463917525759 9.89979959919839  L 0.0859106529209441 9.39879759519039  C 0.0286368843069814 9.33199732798931  0 9.25517702070809  0 9.16833667334669  C 0 9.08149632598531  0.0286368843069814 9.00467601870406  0.0859106529209441 8.93787575150301  L 3.46219931271477 5  L 0.0859106529209441 1.06212424849699  C 0.0286368843069814 0.995323981295911  0 0.918503674014687  0 0.831663326653313  C 0 0.744822979291911  0.0286368843069814 0.668002672010687  0.0859106529209441 0.601202404809612  L 0.515463917525759 0.100200400801612  C 0.57273768613977 0.0334001336005372  0.638602520045832 0  0.713058419243993 0  C 0.787514318442154 0  0.853379152348215 0.0334001336005372  0.910652920962178 0.100200400801612  L 4.91408934707906 4.7695390781563  Z " fill-rule="nonzero" fill="#adb0c1" stroke="none" transform="matrix(1 0 0 1 871 208 )" />
  </g>
</svg>