<?xml version="1.0" encoding="utf-8"?>
<svg version="1.1" xmlns:xlink="http://www.w3.org/1999/xlink" width="21px" height="20px" preserveAspectRatio="xMinYMid meet" viewBox="38 72  21 18" xmlns="http://www.w3.org/2000/svg">
  <path d="M 50 81  L 45 81  A 5 5 0 0 1 40 76 L 40 15  A 5 5 0 0 1 45 10 L 711 10  A 5 5 0 0 1 716 15 L 716 27  " stroke-width="2" stroke="#3399ff" fill="none" />
  <path d="M 48.5 77.5  A 3.5 3.5 0 0 0 45 81 A 3.5 3.5 0 0 0 48.5 84.5 A 3.5 3.5 0 0 0 52 81 A 3.5 3.5 0 0 0 48.5 77.5 Z M 720.292893218813 21.8928932188135  L 716 26.1857864376269  L 711.707106781187 21.8928932188135  L 710.292893218813 23.3071067811865  L 715.292893218813 28.3071067811865  L 716 29.0142135623731  L 716.707106781187 28.3071067811865  L 721.707106781187 23.3071067811865  L 720.292893218813 21.8928932188135  Z " fill-rule="nonzero" fill="#3399ff" stroke="none" />
</svg>