<?xml version="1.0" encoding="utf-8"?>
<svg version="1.1" xmlns:xlink="http://www.w3.org/1999/xlink" width="32px" height="29px" xmlns="http://www.w3.org/2000/svg">
  <g transform="matrix(1 0 0 1 -337 -359 )">
    <path d="M 24.25 26.224609375  C 24.4935897435897 25.9854600694445  24.6153846153846 25.7022569444445  24.6153846153846 25.375  C 24.6153846153846 25.0477430555555  24.4935897435897 24.7645399305555  24.25 24.525390625  C 24.0064102564103 24.2862413194445  23.7179487179487 24.1666666666667  23.3846153846154 24.1666666666667  C 23.0512820512821 24.1666666666667  22.7628205128206 24.2862413194445  22.5192307692307 24.525390625  C 22.275641025641 24.7645399305555  22.1538461538462 25.0477430555555  22.1538461538462 25.375  C 22.1538461538462 25.7022569444445  22.275641025641 25.9854600694445  22.5192307692307 26.224609375  C 22.7628205128206 26.4637586805555  23.0512820512821 26.5833333333333  23.3846153846154 26.5833333333333  C 23.7179487179487 26.5833333333333  24.0064102564103 26.4637586805555  24.25 26.224609375  Z M 29.1730769230769 26.224609375  C 29.4166666666666 25.9854600694445  29.5384615384615 25.7022569444445  29.5384615384615 25.375  C 29.5384615384615 25.0477430555555  29.4166666666666 24.7645399305555  29.1730769230769 24.525390625  C 28.9294871794872 24.2862413194445  28.6410256410256 24.1666666666667  28.3076923076923 24.1666666666667  C 27.974358974359 24.1666666666667  27.6858974358975 24.2862413194445  27.4423076923077 24.525390625  C 27.1987179487179 24.7645399305555  27.0769230769231 25.0477430555555  27.0769230769231 25.375  C 27.0769230769231 25.7022569444445  27.1987179487179 25.9854600694445  27.4423076923077 26.224609375  C 27.6858974358975 26.4637586805555  27.974358974359 26.5833333333333  28.3076923076923 26.5833333333333  C 28.6410256410256 26.5833333333333  28.9294871794872 26.4637586805555  29.1730769230769 26.224609375  Z M 31.4615384615385 19.8619791666667  C 31.8205128205128 20.2144097222222  32 20.6423611111111  32 21.1458333333333  L 32 27.1875  C 32 27.6909722222222  31.8205128205128 28.1189236111111  31.4615384615385 28.4713541666667  C 31.1025641025641 28.8237847222222  30.6666666666666 29  30.1538461538462 29  L 1.84615384615381 29  C 1.33333333333337 29  0.897435897435912 28.8237847222222  0.538461538461547 28.4713541666667  C 0.179487179487182 28.1189236111111  0 27.6909722222222  0 27.1875  L 0 21.1458333333333  C 0 20.6423611111111  0.179487179487182 20.2144097222222  0.538461538461547 19.8619791666667  C 0.897435897435912 19.5095486111111  1.33333333333337 19.3333333333333  1.84615384615381 19.3333333333333  L 10.7884615384615 19.3333333333333  L 13.3846153846154 21.9010416666667  C 14.1282051282051 22.6059027777778  15 22.9583333333333  16 22.9583333333333  C 17 22.9583333333333  17.8717948717949 22.6059027777778  18.6153846153846 21.9010416666667  L 21.2307692307693 19.3333333333333  L 30.1538461538462 19.3333333333333  C 30.6666666666666 19.3333333333333  31.1025641025641 19.5095486111111  31.4615384615385 19.8619791666667  Z M 24.6153846153846 9.66666666666666  C 25.1538461538462 9.66666666666666  25.5320512820513 9.912109375  25.75 10.4029947916667  C 25.9679487179487 10.9190538194445  25.8782051282051 11.3595920138889  25.4807692307693 11.724609375  L 16.8653846153846 20.1829427083333  C 16.6346153846154 20.4220920138889  16.3461538461538 20.5416666666667  16 20.5416666666667  C 15.6538461538462 20.5416666666667  15.3653846153846 20.4220920138889  15.1346153846154 20.1829427083333  L 12.1324578868206 17.2355120399254  L 6.51923076923072 11.724609375  C 6.12179487179492 11.3595920138889  6.03205128205127 10.9190538194445  6.25 10.4029947916667  C 6.46794871794873 9.912109375  6.84615384615381 9.66666666666666  7.38461538461536 9.66666666666666  L 12.3076923076923 9.66666666666666  L 12.3076923076923 1.20833333333334  C 12.3076923076923 0.881076388888886  12.4294871794872 0.597873263888886  12.6730769230769 0.358723958333343  C 12.9166666666666 0.119574652777771  13.2051282051282 0  13.5384615384615 0  L 18.4615384615385 0  C 18.7948717948718 0  19.0833333333334 0.119574652777771  19.3269230769231 0.358723958333343  C 19.5705128205128 0.597873263888886  19.6923076923077 0.881076388888886  19.6923076923077 1.20833333333334  L 19.6923076923077 9.66666666666666  L 24.6153846153846 9.66666666666666  Z " fill-rule="nonzero" fill="#999999" stroke="none" transform="matrix(1 0 0 1 337 359 )" />
  </g>
</svg>