<?xml version="1.0" encoding="utf-8"?>
<svg version="1.1" xmlns:xlink="http://www.w3.org/1999/xlink" width="33px" height="33px" xmlns="http://www.w3.org/2000/svg">
  <g transform="matrix(1 0 0 1 -217 -355 )">
    <path d="M 20.388671875 12.611328125  C 21.462890625 13.685546875  22 14.9817708333333  22 16.5  C 22 18.0182291666667  21.462890625 19.314453125  20.388671875 20.388671875  C 19.314453125 21.462890625  18.0182291666667 22  16.5 22  C 14.9817708333333 22  13.685546875 21.462890625  12.611328125 20.388671875  C 11.537109375 19.314453125  11 18.0182291666667  11 16.5  C 11 14.9817708333333  11.537109375 13.685546875  12.611328125 12.611328125  C 13.685546875 11.537109375  14.9817708333333 11  16.5 11  C 18.0182291666667 11  19.314453125 11.537109375  20.388671875 12.611328125  Z M 22.3330078125 22.3330078125  C 23.9443359375 20.7216796875  24.75 18.77734375  24.75 16.5  C 24.75 14.22265625  23.9443359375 12.2783203125  22.3330078125 10.6669921875  C 20.7216796875 9.0556640625  18.77734375 8.25  16.5 8.25  C 14.22265625 8.25  12.2783203125 9.0556640625  10.6669921875 10.6669921875  C 9.0556640625 12.2783203125  8.25 14.22265625  8.25 16.5  C 8.25 18.77734375  9.0556640625 20.7216796875  10.6669921875 22.3330078125  C 12.2783203125 23.9443359375  14.22265625 24.75  16.5 24.75  C 18.77734375 24.75  20.7216796875 23.9443359375  22.3330078125 22.3330078125  Z M 24.27734375 8.72265625  C 26.42578125 10.87109375  27.5 13.4635416666667  27.5 16.5  C 27.5 19.5364583333333  26.42578125 22.12890625  24.27734375 24.27734375  C 22.12890625 26.42578125  19.5364583333333 27.5  16.5 27.5  C 13.4635416666667 27.5  10.87109375 26.42578125  8.72265625 24.27734375  C 6.57421875 22.12890625  5.5 19.5364583333333  5.5 16.5  C 5.5 13.4635416666667  6.57421875 10.87109375  8.72265625 8.72265625  C 10.87109375 6.57421875  13.4635416666667 5.5  16.5 5.5  C 19.5364583333333 5.5  22.12890625 6.57421875  24.27734375 8.72265625  Z M 29.154296875 21.8388671875  C 29.884765625 20.1416015625  30.25 18.3619791666667  30.25 16.5  C 30.25 14.6380208333333  29.884765625 12.8583984375  29.154296875 11.1611328125  C 28.423828125 9.4638671875  27.4462890625 8.0029296875  26.2216796875 6.7783203125  C 24.9970703125 5.5537109375  23.5361328125 4.576171875  21.8388671875 3.845703125  C 20.1416015625 3.115234375  18.3619791666667 2.75  16.5 2.75  C 14.6380208333333 2.75  12.8583984375 3.115234375  11.1611328125 3.845703125  C 9.4638671875 4.576171875  8.0029296875 5.5537109375  6.7783203125 6.7783203125  C 5.5537109375 8.0029296875  4.576171875 9.4638671875  3.845703125 11.1611328125  C 3.115234375 12.8583984375  2.75 14.6380208333333  2.75 16.5  C 2.75 18.3619791666667  3.115234375 20.1416015625  3.845703125 21.8388671875  C 4.576171875 23.5361328125  5.5537109375 24.9970703125  6.7783203125 26.2216796875  C 8.0029296875 27.4462890625  9.4638671875 28.423828125  11.1611328125 29.154296875  C 12.8583984375 29.884765625  14.6380208333333 30.25  16.5 30.25  C 18.3619791666667 30.25  20.1416015625 29.884765625  21.8388671875 29.154296875  C 23.5361328125 28.423828125  24.9970703125 27.4462890625  26.2216796875 26.2216796875  C 27.4462890625 24.9970703125  28.423828125 23.5361328125  29.154296875 21.8388671875  Z M 30.787109375 8.2177734375  C 32.2623697916667 10.7457682291667  33 13.5065104166667  33 16.5  C 33 19.4934895833333  32.2623697916667 22.2542317708333  30.787109375 24.7822265625  C 29.3118489583333 27.3102213541667  27.3102213541667 29.3118489583333  24.7822265625 30.787109375  C 22.2542317708333 32.2623697916667  19.4934895833333 33  16.5 33  C 13.5065104166667 33  10.7457682291667 32.2623697916667  8.2177734375 30.787109375  C 5.68977864583333 29.3118489583333  3.68815104166667 27.3102213541667  2.212890625 24.7822265625  C 0.737630208333333 22.2542317708333  0 19.4934895833333  0 16.5  C 0 13.5065104166667  0.737630208333333 10.7457682291667  2.212890625 8.2177734375  C 3.68815104166667 5.68977864583333  5.68977864583333 3.68815104166666  8.2177734375 2.212890625  C 10.7457682291667 0.73763020833333  13.5065104166667 0  16.5 0  C 19.4934895833333 0  22.2542317708333 0.73763020833333  24.7822265625 2.212890625  C 27.3102213541667 3.68815104166666  29.3118489583333 5.68977864583333  30.787109375 8.2177734375  Z " fill-rule="nonzero" fill="#999999" stroke="none" transform="matrix(1 0 0 1 217 355 )" />
  </g>
</svg>