<?xml version="1.0" encoding="utf-8"?>
<svg version="1.1" xmlns:xlink="http://www.w3.org/1999/xlink" width="113px" height="106px" xmlns="http://www.w3.org/2000/svg">
  <g transform="matrix(1 0 0 1 -175 -138 )">
    <path d="M 20.5454545454545 77  L 30.8181818181818 77  L 30.8181818181818 86  L 20.5454545454545 86  L 20.5454545454545 77  Z M 20.5454545454545 20  L 30.8181818181818 20  L 30.8181818181818 29  L 20.5454545454545 29  L 20.5454545454545 20  Z M 82.1818181818182 20  L 92.4545454545455 20  L 92.4545454545455 29  L 82.1818181818182 29  L 82.1818181818182 20  Z M 11 67  L 11 96  L 41 96  L 41 67  L 11 67  Z M 11 10  L 11 39  L 41 39  L 41 10  L 11 10  Z M 72 10  L 72 39  L 102 39  L 102 10  L 72 10  Z M 0 57  L 52 57  L 52 106  L 0 106  L 0 57  Z M 82 96  L 92 96  L 92 106  L 82 106  L 82 96  Z M 102 96  L 113 96  L 113 106  L 102 106  L 102 96  Z M 102 57  L 113 57  L 113 86  L 82.1818181818182 86  L 82.1818181818182 77  L 72 77  L 72 106  L 61 106  L 61 57  L 92 57  L 92 67  L 102 67  L 102 57  Z M 0 0  L 52 0  L 52 49  L 0 49  L 0 0  Z M 61 0  L 113 0  L 113 49  L 61 49  L 61 0  Z " fill-rule="nonzero" fill="#797979" stroke="none" transform="matrix(1 0 0 1 175 138 )" />
  </g>
</svg>