<?xml version="1.0" encoding="utf-8"?>
<svg version="1.1" xmlns:xlink="http://www.w3.org/1999/xlink" width="35px" height="32px" xmlns="http://www.w3.org/2000/svg">
  <g transform="matrix(1 0 0 1 -93 -355 )">
    <path d="M 14.9661458333333 19.2799545712663  C 15.8776041666667 18.3713798977853  16.3333333333333 17.2750331251183  16.3333333333333 15.9909142532652  C 16.3333333333333 14.7067953814121  15.8776041666667 13.610448608745  14.9661458333333 12.7018739352641  C 14.0546875 11.7932992617831  12.9548611111111 11.3390119250426  11.6666666666667 11.3390119250426  C 10.3784722222222 11.3390119250426  9.27864583333333 11.7932992617831  8.3671875 12.7018739352641  C 7.45572916666667 13.610448608745  7 14.7067953814121  7 15.9909142532652  C 7 17.2750331251183  7.45572916666667 18.3713798977853  8.3671875 19.2799545712663  C 9.27864583333333 20.1885292447473  10.3784722222222 20.6428165814878  11.6666666666667 20.6428165814878  C 12.9548611111111 20.6428165814878  14.0546875 20.1885292447473  14.9661458333333 19.2799545712663  Z M 29.6497395833333 26.939239068711  C 30.10546875 26.4849517319705  30.3333333333333 25.9367783456369  30.3333333333333 25.2947189097104  C 30.3333333333333 24.6647738027636  30.1024305555556 24.119628998675  29.640625 23.6592844974446  C 29.1788194444444 23.1989399962143  28.6319444444444 22.9687677455991  28 22.9687677455991  C 27.3680555555556 22.9687677455991  26.8211805555556 23.1989399962143  26.359375 23.6592844974446  C 25.8975694444444 24.119628998675  25.6666666666667 24.6647738027636  25.6666666666667 25.2947189097104  C 25.6666666666667 25.9367783456369  25.89453125 26.4849517319705  26.3502604166667 26.939239068711  C 26.8059895833333 27.3935264054514  27.3559027777778 27.6206700738217  28 27.6206700738217  C 28.6440972222222 27.6206700738217  29.1940104166667 27.3935264054514  29.6497395833333 26.939239068711  Z M 29.6497395833333 8.33162975582056  C 30.10546875 7.87734241908007  30.3333333333333 7.32916903274655  30.3333333333333 6.68710959681999  C 30.3333333333333 6.05716448987318  30.1024305555556 5.51201968578459  29.640625 5.05167518455423  C 29.1788194444444 4.59133068332387  28.6319444444444 4.36115843270869  28 4.36115843270869  C 27.3680555555556 4.36115843270869  26.8211805555556 4.59133068332387  26.359375 5.05167518455423  C 25.8975694444444 5.51201968578459  25.6666666666667 6.05716448987318  25.6666666666667 6.68710959681999  C 25.6666666666667 7.32916903274655  25.89453125 7.87734241908007  26.3502604166667 8.33162975582056  C 26.8059895833333 8.78591709256105  27.3559027777778 9.01306076093129  28 9.01306076093129  C 28.6440972222222 9.01306076093129  29.1940104166667 8.78591709256105  29.6497395833333 8.33162975582056  Z M 23.2057291666667 13.9829642248722  C 23.2907986111111 14.0859360212001  23.3333333333333 14.2040507287526  23.3333333333333 14.3373083475298  L 23.3333333333333 17.6990346394094  C 23.3333333333333 17.8201779292069  23.2907986111111 17.9382926367594  23.2057291666667 18.053378762067  C 23.1206597222222 18.1684648873746  23.0234375 18.2320651145183  22.9140625 18.244179443498  L 20.0885416666667 18.6802952867689  C 19.9548611111111 19.10429680106  19.7604166666667 19.5646413022904  19.5052083333333 20.06132879046  C 19.9184027777778 20.6428165814878  20.4652777777778 21.3393904978232  21.1458333333333 22.1510505394662  C 21.2309027777778 22.2721938292637  21.2734375 22.3933371190611  21.2734375 22.5144804088586  C 21.2734375 22.6598523566156  21.2309027777778 22.7749384819232  21.1458333333333 22.8597387847814  C 20.8663194444444 23.2231686541738  20.3650173611111 23.7652848760174  19.6419270833333 24.4860874503123  C 18.9188368055556 25.2068900246072  18.4418402777778 25.5672913117547  18.2109375 25.5672913117547  C 18.0772569444444 25.5672913117547  17.9496527777778 25.5248911603256  17.828125 25.4400908574673  L 15.7317708333333 23.8046564452016  C 15.2821180555556 24.0348286958168  14.8142361111111 24.2226007950028  14.328125 24.3679727427598  C 14.1944444444444 25.6763202725724  14.0546875 26.6151807685027  13.9088541666667 27.1845542305508  C 13.8237847222222 27.4752981260647  13.6414930555556 27.6206700738217  13.3619791666667 27.6206700738217  L 9.97135416666667 27.6206700738217  C 9.83767361111111 27.6206700738217  9.71614583333333 27.5752413401476  9.60677083333333 27.4843838727995  C 9.49739583333333 27.3935264054514  9.43663194444444 27.2875260268787  9.42447916666667 27.1663827370812  L 9.00520833333333 24.3861442362294  C 8.59201388888889 24.265000946432  8.13628472222222 24.0772288472459  7.63802083333333 23.8228279386712  L 5.48697916666667 25.4400908574673  C 5.40190972222222 25.5248911603256  5.28038194444445 25.5672913117547  5.12239583333333 25.5672913117547  C 4.98871527777778 25.5672913117547  4.86111111111111 25.5188339958357  4.73958333333333 25.4219193639977  C 2.98958333333333 23.8107136096915  2.11458333333333 22.8415672913118  2.11458333333333 22.5144804088586  C 2.11458333333333 22.4054514480409  2.15711805555556 22.2903653227333  2.2421875 22.1692220329358  C 2.36371527777778 21.9996214272194  2.61284722222222 21.6785917092561  2.98958333333333 21.206132879046  C 3.36631944444444 20.7336740488359  3.65190972222222 20.3641870149536  3.84635416666667 20.0976717773992  C 3.56684027777778 19.5646413022904  3.35416666666667 19.0679538141208  3.20833333333333 18.6076093128904  L 0.4375 18.1714934696195  C 0.315972222222222 18.1593791406398  0.212673611111111 18.101836077986  0.127604166666667 17.9988642816582  C 0.0425347222222222 17.8958924853303  0 17.7777777777778  0 17.6445201590006  L 0 14.282793867121  C 0 14.1616505773235  0.0425347222222222 14.043535869771  0.127604166666667 13.9284497444634  C 0.212673611111111 13.8133636191558  0.309895833333333 13.7497633920121  0.419270833333333 13.7376490630324  L 3.24479166666667 13.3015332197615  C 3.37847222222222 12.8775317054704  3.57291666666667 12.41718720424  3.828125 11.9204997160704  C 3.41493055555556 11.3390119250426  2.86805555555556 10.6424380087072  2.1875 9.83077796706417  C 2.10243055555556 9.69752034828695  2.05989583333333 9.57637705848949  2.05989583333333 9.46734809767178  C 2.05989583333333 9.32197614991482  2.10243055555556 9.20083286011736  2.1875 9.10391822827939  C 2.45486111111111 8.740488358887  2.953125 8.20140071928828  3.68229166666667 7.48665530948325  C 4.41145833333333 6.77190989967821  4.89149305555556 6.4145371947757  5.12239583333333 6.4145371947757  C 5.25607638888889 6.4145371947757  5.38368055555556 6.45693734620481  5.50520833333333 6.54173764906303  L 7.6015625 8.17717206132879  C 8.01475694444444 7.95911413969336  8.48263888888889 7.76528487601741  9.00520833333333 7.59568427030096  C 9.13888888888889 6.28733674048836  9.27864583333333 5.35453340904789  9.42447916666667 4.79727427597956  C 9.50954861111111 4.50653038046564  9.69184027777778 4.36115843270869  9.97135416666667 4.36115843270869  L 13.3619791666667 4.36115843270869  C 13.4956597222222 4.36115843270869  13.6171875 4.40658716638274  13.7265625 4.49744463373084  C 13.8359375 4.58830210107893  13.8967013888889 4.69430247965171  13.9088541666667 4.81544576944918  L 14.328125 7.59568427030096  C 14.7413194444444 7.71682756009843  15.1970486111111 7.9045996592845  15.6953125 8.15900056785917  L 17.8463541666667 6.54173764906303  C 17.9435763888889 6.45693734620481  18.0651041666667 6.4145371947757  18.2109375 6.4145371947757  C 18.3446180555556 6.4145371947757  18.4722222222222 6.46299451069468  18.59375 6.55990914253265  C 20.34375 8.17111489683892  21.21875 9.14026121521863  21.21875 9.46734809767178  C 21.21875 9.57637705848949  21.1762152777778 9.69146318379708  21.0911458333333 9.81260647359455  C 20.9453125 10.0064357372705  20.6901041666667 10.3335226197236  20.3255208333333 10.793867120954  C 19.9609375 11.2542116221844  19.6875 11.6176414915768  19.5052083333333 11.8841567291312  C 19.7847222222222 12.465644520159  19.9913194444444 12.9623320083286  20.125 13.37421919364  L 22.8958333333333 13.7921635434412  C 23.0173611111111 13.8163922014007  23.1206597222222 13.8799924285444  23.2057291666667 13.9829642248722  Z M 32.2838541666667 23.4593980692788  C 34.0946180555556 23.641113003975  35 23.8288851031611  35 24.022714366837  L 35 26.5667234525838  C 35 26.7605527162597  34.0946180555556 26.9483248154458  32.2838541666667 27.130039750142  C 32.1380208333333 27.4571266325951  31.9557291666667 27.7720991860685  31.7369791666667 28.0749574105622  C 32.3567708333333 29.4438765852735  32.6666666666667 30.279765284876  32.6666666666667 30.5826235093697  C 32.6666666666667 30.6310808252887  32.6423611111111 30.6734809767178  32.59375 30.709823963657  C 31.1111111111111 31.569941321219  30.3576388888889 32  30.3333333333333 32  C 30.2361111111111 32  29.9565972222222 31.715313268976  29.4947916666667 31.1459398069279  C 29.0329861111111 30.5765663448798  28.7170138888889 30.1646791595684  28.546875 29.9102782509938  C 28.3038194444444 29.9345069089532  28.1215277777778 29.946621237933  28 29.946621237933  C 27.8784722222222 29.946621237933  27.6961805555556 29.9345069089532  27.453125 29.9102782509938  C 27.2829861111111 30.1646791595684  26.9670138888889 30.5765663448798  26.5052083333333 31.1459398069279  C 26.0434027777778 31.715313268976  25.7638888888889 32  25.6666666666667 32  C 25.6423611111111 32  24.8888888888889 31.569941321219  23.40625 30.709823963657  C 23.3576388888889 30.6734809767178  23.3333333333333 30.6310808252887  23.3333333333333 30.5826235093697  C 23.3333333333333 30.279765284876  23.6432291666667 29.4438765852735  24.2630208333333 28.0749574105622  C 24.0442708333333 27.7720991860685  23.8619791666667 27.4571266325951  23.7161458333333 27.130039750142  C 21.9053819444444 26.9483248154458  21 26.7605527162597  21 26.5667234525838  L 21 24.022714366837  C 21 23.8288851031611  21.9053819444444 23.641113003975  23.7161458333333 23.4593980692788  C 23.8741319444444 23.1080825288662  24.0564236111111 22.7931099753928  24.2630208333333 22.5144804088586  C 23.6432291666667 21.1455612341473  23.3333333333333 20.3096725345448  23.3333333333333 20.0068143100511  C 23.3333333333333 19.9583569941321  23.3576388888889 19.915956842703  23.40625 19.8796138557638  C 23.4548611111111 19.8553851978043  23.6675347222222 19.7342419080068  24.0442708333333 19.5161839863714  C 24.4210069444444 19.2981260647359  24.7795138888889 19.0921824720803  25.1197916666667 18.8983532084043  C 25.4600694444444 18.7045239447284  25.6423611111111 18.6076093128904  25.6666666666667 18.6076093128904  C 25.7638888888889 18.6076093128904  26.0434027777778 18.8892674616695  26.5052083333333 19.4525837592277  C 26.9670138888889 20.0159000567859  27.2829861111111 20.4247586598524  27.453125 20.679159568427  C 27.6961805555556 20.6549309104675  27.8784722222222 20.6428165814878  28 20.6428165814878  C 28.1215277777778 20.6428165814878  28.3038194444444 20.6549309104675  28.546875 20.679159568427  C 29.1666666666667 19.819042210865  29.7256944444444 19.1406397879992  30.2239583333333 18.6439522998296  L 30.3333333333333 18.6076093128904  C 30.3819444444444 18.6076093128904  31.1354166666667 19.0316108271815  32.59375 19.8796138557638  C 32.6423611111111 19.915956842703  32.6666666666667 19.9583569941321  32.6666666666667 20.0068143100511  C 32.6666666666667 20.3096725345448  32.3567708333333 21.1455612341473  31.7369791666667 22.5144804088586  C 31.9435763888889 22.7931099753928  32.1258680555556 23.1080825288662  32.2838541666667 23.4593980692788  Z M 32.2838541666667 4.85178875638842  C 34.0946180555556 5.03350369108461  35 5.22127579027068  35 5.41510505394662  L 35 7.95911413969336  C 35 8.1529434033693  34.0946180555556 8.34071550255537  32.2838541666667 8.52243043725156  C 32.1380208333333 8.84951731970471  31.9557291666667 9.16448987317812  31.7369791666667 9.46734809767178  C 32.3567708333333 10.8362672723831  32.6666666666667 11.6721559719856  32.6666666666667 11.9750141964793  C 32.6666666666667 12.0234715123983  32.6423611111111 12.0658716638274  32.59375 12.1022146507666  C 31.1111111111111 12.9623320083286  30.3576388888889 13.3923906871096  30.3333333333333 13.3923906871096  C 30.2361111111111 13.3923906871096  29.9565972222222 13.1077039560856  29.4947916666667 12.5383304940375  C 29.0329861111111 11.9689570319894  28.7170138888889 11.557069846678  28.546875 11.3026689381034  C 28.3038194444444 11.3268975960628  28.1215277777778 11.3390119250426  28 11.3390119250426  C 27.8784722222222 11.3390119250426  27.6961805555556 11.3268975960628  27.453125 11.3026689381034  C 27.2829861111111 11.557069846678  26.9670138888889 11.9689570319894  26.5052083333333 12.5383304940375  C 26.0434027777778 13.1077039560856  25.7638888888889 13.3923906871096  25.6666666666667 13.3923906871096  C 25.6423611111111 13.3923906871096  24.8888888888889 12.9623320083286  23.40625 12.1022146507666  C 23.3576388888889 12.0658716638274  23.3333333333333 12.0234715123983  23.3333333333333 11.9750141964793  C 23.3333333333333 11.6721559719856  23.6432291666667 10.8362672723831  24.2630208333333 9.46734809767178  C 24.0442708333333 9.16448987317812  23.8619791666667 8.84951731970471  23.7161458333333 8.52243043725156  C 21.9053819444444 8.34071550255537  21 8.1529434033693  21 7.95911413969336  L 21 5.41510505394662  C 21 5.22127579027068  21.9053819444444 5.03350369108461  23.7161458333333 4.85178875638842  C 23.8741319444444 4.50047321597577  24.0564236111111 4.18550066250236  24.2630208333333 3.9068710959682  C 23.6432291666667 2.53795192125686  23.3333333333333 1.70206322165436  23.3333333333333 1.39920499716071  C 23.3333333333333 1.35074768124172  23.3576388888889 1.30834752981261  23.40625 1.27200454287337  C 23.4548611111111 1.24777588491387  23.6675347222222 1.12663259511641  24.0442708333333 0.908574673480977  C 24.4210069444444 0.690516751845543  24.7795138888889 0.48457315918985  25.1197916666667 0.290743895513913  C 25.4600694444444 0.0969146318379686  25.6423611111111 0  25.6666666666667 0  C 25.7638888888889 0  26.0434027777778 0.281658148779101  26.5052083333333 0.844974446337307  C 26.9670138888889 1.40829074389551  27.2829861111111 1.81714934696195  27.453125 2.07155025553663  C 27.6961805555556 2.04732159757713  27.8784722222222 2.03520726859739  28 2.03520726859739  C 28.1215277777778 2.03520726859739  28.3038194444444 2.04732159757713  28.546875 2.07155025553663  C 29.1666666666667 1.21143289797463  29.7256944444444 0.533030475108838  30.2239583333333 0.0363429869392391  L 30.3333333333333 0  C 30.3819444444444 0  31.1354166666667 0.42400151429112  32.59375 1.27200454287337  C 32.6423611111111 1.30834752981261  32.6666666666667 1.35074768124172  32.6666666666667 1.39920499716071  C 32.6666666666667 1.70206322165436  32.3567708333333 2.53795192125686  31.7369791666667 3.9068710959682  C 31.9435763888889 4.18550066250236  32.1258680555556 4.50047321597577  32.2838541666667 4.85178875638842  Z " fill-rule="nonzero" fill="#999999" stroke="none" transform="matrix(1 0 0 1 93 355 )" />
  </g>
</svg>