<?xml version="1.0" encoding="utf-8"?>
<svg version="1.1" xmlns:xlink="http://www.w3.org/1999/xlink" width="14px" height="14px" xmlns="http://www.w3.org/2000/svg">
  <g transform="matrix(1 0 0 1 -1620 -1834 )">
    <path d="M 9.884765625 9.884765625  C 10.3739149305556 9.39561631944444  10.7157118055556 8.82291666666667  10.91015625 8.16666666666667  L 9.91666666666667 8.16666666666667  C 9.75868055555556 8.16666666666667  9.62196180555556 8.10894097222222  9.50651041666667 7.99348958333333  C 9.39105902777778 7.87803819444444  9.33333333333333 7.74131944444444  9.33333333333333 7.58333333333333  L 9.33333333333333 6.41666666666667  C 9.33333333333333 6.25868055555555  9.39105902777778 6.12196180555555  9.50651041666667 6.00651041666667  C 9.62196180555556 5.89105902777778  9.75868055555556 5.83333333333333  9.91666666666667 5.83333333333333  L 10.91015625 5.83333333333333  C 10.7157118055556 5.17708333333333  10.3739149305556 4.60438368055555  9.884765625 4.115234375  C 9.39561631944444 3.62608506944444  8.82291666666667 3.28428819444444  8.16666666666667 3.08984375  L 8.16666666666667 4.08333333333333  C 8.16666666666667 4.24131944444444  8.10894097222222 4.37803819444444  7.99348958333333 4.49348958333333  C 7.87803819444445 4.60894097222222  7.74131944444445 4.66666666666667  7.58333333333333 4.66666666666667  L 6.41666666666667 4.66666666666667  C 6.25868055555556 4.66666666666667  6.12196180555556 4.60894097222222  6.00651041666667 4.49348958333333  C 5.89105902777778 4.37803819444444  5.83333333333333 4.24131944444444  5.83333333333333 4.08333333333333  L 5.83333333333333 3.08984375  C 5.17708333333333 3.28428819444444  4.60438368055556 3.62608506944444  4.115234375 4.115234375  C 3.62608506944444 4.60438368055555  3.28428819444445 5.17708333333333  3.08984375 5.83333333333333  L 4.08333333333333 5.83333333333333  C 4.24131944444444 5.83333333333333  4.37803819444444 5.89105902777778  4.49348958333333 6.00651041666667  C 4.60894097222222 6.12196180555555  4.66666666666667 6.25868055555555  4.66666666666667 6.41666666666667  L 4.66666666666667 7.58333333333333  C 4.66666666666667 7.74131944444444  4.60894097222222 7.87803819444444  4.49348958333333 7.99348958333333  C 4.37803819444444 8.10894097222222  4.24131944444444 8.16666666666667  4.08333333333333 8.16666666666667  L 3.08984375 8.16666666666667  C 3.28428819444445 8.82291666666667  3.62608506944444 9.39561631944444  4.115234375 9.884765625  C 4.60438368055556 10.3739149305556  5.17708333333333 10.7157118055556  5.83333333333333 10.91015625  L 5.83333333333333 9.91666666666667  C 5.83333333333333 9.75868055555556  5.89105902777778 9.62196180555556  6.00651041666667 9.50651041666667  C 6.12196180555556 9.39105902777778  6.25868055555556 9.33333333333333  6.41666666666667 9.33333333333333  L 7.58333333333333 9.33333333333333  C 7.74131944444445 9.33333333333333  7.87803819444445 9.39105902777778  7.99348958333333 9.50651041666667  C 8.10894097222222 9.62196180555556  8.16666666666667 9.75868055555556  8.16666666666667 9.91666666666667  L 8.16666666666667 10.91015625  C 8.82291666666667 10.7157118055556  9.39561631944444 10.3739149305556  9.884765625 9.884765625  Z M 13.8268229166667 6.00651041666667  C 13.9422743055556 6.12196180555555  14 6.25868055555555  14 6.41666666666667  L 14 7.58333333333333  C 14 7.74131944444444  13.9422743055556 7.87803819444444  13.8268229166667 7.99348958333333  C 13.7113715277778 8.10894097222222  13.5746527777778 8.16666666666667  13.4166666666667 8.16666666666667  L 12.11328125 8.16666666666667  C 11.8884548611111 9.14496527777778  11.4190538194444 9.99110243055556  10.705078125 10.705078125  C 9.99110243055556 11.4190538194444  9.14496527777778 11.8884548611111  8.16666666666667 12.11328125  L 8.16666666666667 13.4166666666667  C 8.16666666666667 13.5746527777778  8.10894097222222 13.7113715277778  7.99348958333333 13.8268229166667  C 7.87803819444445 13.9422743055556  7.74131944444445 14  7.58333333333333 14  L 6.41666666666667 14  C 6.25868055555556 14  6.12196180555556 13.9422743055556  6.00651041666667 13.8268229166667  C 5.89105902777778 13.7113715277778  5.83333333333333 13.5746527777778  5.83333333333333 13.4166666666667  L 5.83333333333333 12.11328125  C 4.85503472222222 11.8884548611111  4.00889756944444 11.4190538194444  3.294921875 10.705078125  C 2.58094618055556 9.99110243055556  2.11154513888889 9.14496527777778  1.88671875 8.16666666666667  L 0.583333333333333 8.16666666666667  C 0.425347222222222 8.16666666666667  0.288628472222222 8.10894097222222  0.173177083333333 7.99348958333333  C 0.0577256944444444 7.87803819444444  0 7.74131944444444  0 7.58333333333333  L 0 6.41666666666667  C 0 6.25868055555555  0.0577256944444444 6.12196180555555  0.173177083333333 6.00651041666667  C 0.288628472222222 5.89105902777778  0.425347222222222 5.83333333333333  0.583333333333333 5.83333333333333  L 1.88671875 5.83333333333333  C 2.11154513888889 4.85503472222222  2.58094618055556 4.00889756944444  3.294921875 3.294921875  C 4.00889756944444 2.58094618055555  4.85503472222222 2.11154513888889  5.83333333333333 1.88671875  L 5.83333333333333 0.583333333333333  C 5.83333333333333 0.42534722222222  5.89105902777778 0.28862847222222  6.00651041666667 0.173177083333333  C 6.12196180555556 0.0577256944444438  6.25868055555556 0  6.41666666666667 0  L 7.58333333333333 0  C 7.74131944444445 0  7.87803819444445 0.0577256944444438  7.99348958333333 0.173177083333333  C 8.10894097222222 0.28862847222222  8.16666666666667 0.42534722222222  8.16666666666667 0.583333333333333  L 8.16666666666667 1.88671875  C 9.14496527777778 2.11154513888889  9.99110243055556 2.58094618055555  10.705078125 3.294921875  C 11.4190538194444 4.00889756944444  11.8884548611111 4.85503472222222  12.11328125 5.83333333333333  L 13.4166666666667 5.83333333333333  C 13.5746527777778 5.83333333333333  13.7113715277778 5.89105902777778  13.8268229166667 6.00651041666667  Z " fill-rule="nonzero" fill="#868686" stroke="none" transform="matrix(1 0 0 1 1620 1834 )" />
  </g>
</svg>