<?xml version="1.0" encoding="utf-8"?>
<svg version="1.1" xmlns:xlink="http://www.w3.org/1999/xlink" width="22px" height="22px" xmlns="http://www.w3.org/2000/svg">
  <g transform="matrix(1 0 0 1 -1575 -1830 )">
    <path d="M 1586 1830  C 1592.16 1830  1597 1834.84  1597 1841  C 1597 1847.16  1592.16 1852  1586 1852  C 1579.84 1852  1575 1847.16  1575 1841  C 1575 1834.84  1579.84 1830  1586 1830  Z " fill-rule="nonzero" fill="#ffffff" stroke="none" />
    <path d="M 1586 1830.5  C 1591.88 1830.5  1596.5 1835.12  1596.5 1841  C 1596.5 1846.88  1591.88 1851.5  1586 1851.5  C 1580.12 1851.5  1575.5 1846.88  1575.5 1841  C 1575.5 1835.12  1580.12 1830.5  1586 1830.5  Z " stroke-width="1" stroke="#797979" fill="none" />
  </g>
</svg>