<?xml version="1.0" encoding="utf-8"?>
<svg version="1.1" xmlns:xlink="http://www.w3.org/1999/xlink" width="34px" height="33px" xmlns="http://www.w3.org/2000/svg">
  <g transform="matrix(1 0 0 1 -94 -451 )">
    <path d="M 31.7200520833333 8.42061374249499  C 33.2400173611111 11.0110073382255  34 13.8398932621748  34 16.9072715143429  C 34 20.5910607071381  32.9190538194444 23.9042695130087  30.7571614583333 26.8468979319546  C 28.5952690972222 29.7895263509006  25.8025173611111 31.8258839226151  22.37890625 32.9559706470981  C 21.98046875 33.0293529019346  21.6890190972222 32.977985323549  21.5045572916667 32.8018679119413  C 21.3200954861111 32.6257505003336  21.2278645833333 32.4056037358239  21.2278645833333 32.1414276184123  L 21.2278645833333 27.4963308872582  C 21.2278645833333 26.072715143429  20.8441840277778 25.0306871247498  20.0768229166667 24.3702468312208  C 20.91796875 24.2821881254169  21.6742621527778 24.1501000667111  22.345703125 23.9739826551034  C 23.0171440972222 23.7978652434957  23.7107204861111 23.5116744496331  24.4264322916667 23.1154102735157  C 25.1421440972222 22.7191460973983  25.7398003472222 22.2311541027352  26.2194010416667 21.6514342895263  C 26.6990017361111 21.0717144763175  27.0900607638889 20.3012008005337  27.392578125 19.3398932621748  C 27.6950954861111 18.3785857238159  27.8463541666667 17.2741827885257  27.8463541666667 16.0266844563042  C 27.8463541666667 14.2508338892595  27.2634548611111 12.7391594396264  26.09765625 11.4916611074049  C 26.6436631944444 10.1561040693796  26.5846354166667 8.65910607071381  25.9205729166667 7.0006671114076  C 25.5073784722222 6.8685790527018  24.9097222222222 6.94929953302201  24.1276041666667 7.24282855236825  C 23.3454861111111 7.53635757171447  22.6666666666667 7.85923949299533  22.0911458333333 8.21147431621081  L 21.25 8.73982655103402  C 19.8776041666667 8.35823882588392  18.4609375 8.16744496330887  17 8.16744496330887  C 15.5390625 8.16744496330887  14.1223958333333 8.35823882588392  12.75 8.73982655103402  C 12.5138888888889 8.57838559039359  12.2003038194444 8.38025350233489  11.8092447916667 8.1454302868579  C 11.4181857638889 7.91060707138092  10.8020833333333 7.62808539026017  9.9609375 7.29786524349566  C 9.11979166666667 6.96764509673115  8.48524305555556 6.8685790527018  8.05729166666667 7.0006671114076  C 7.40798611111111 8.65910607071381  7.35633680555556 10.1561040693796  7.90234375 11.4916611074049  C 6.73654513888889 12.7391594396264  6.15364583333333 14.2508338892595  6.15364583333333 16.0266844563042  C 6.15364583333333 17.2741827885257  6.30490451388889 18.374916611074  6.607421875 19.3288859239493  C 6.90993923611111 20.2828552368245  7.29730902777778 21.0533689126084  7.76953125 21.6404269513009  C 8.24175347222222 22.2274849899933  8.83572048611111 22.7191460973983  9.55143229166667 23.1154102735157  C 10.2671440972222 23.5116744496331  10.9607204861111 23.7978652434957  11.6321614583333 23.9739826551034  C 12.3036024305556 24.1501000667111  13.0598958333333 24.2821881254169  13.9010416666667 24.3702468312208  C 13.3107638888889 24.898599066044  12.94921875 25.6544362908606  12.81640625 26.6377585056704  C 12.5065104166667 26.7845230153436  12.1744791666667 26.8945963975984  11.8203125 26.967978652435  C 11.4661458333333 27.0413609072715  11.0455729166667 27.0780520346898  10.55859375 27.0780520346898  C 10.0716145833333 27.0780520346898  9.58832465277778 26.9202801867912  9.10872395833333 26.604736490994  C 8.62912326388889 26.2891927951968  8.21961805555556 25.8305537024683  7.88020833333333 25.2288192128085  C 7.59982638888889 24.7591727818546  7.24197048611111 24.3775850567045  6.806640625 24.0840560373582  C 6.37131076388889 23.790527018012  6.00607638888889 23.6144096064043  5.7109375 23.555703802535  L 5.26822916666667 23.4896597731821  C 4.95833333333333 23.4896597731821  4.74435763888889 23.5226817878586  4.62630208333333 23.5887258172115  C 4.50824652777778 23.6547698465644  4.47135416666667 23.7391594396264  4.515625 23.8418945963976  C 4.55989583333333 23.9446297531688  4.62630208333333 24.04736490994  4.71484375 24.1501000667111  C 4.80338541666667 24.2528352234823  4.89930555555556 24.3408939292862  5.00260416666667 24.4142761841227  L 5.15755208333333 24.5243495663776  C 5.48220486111111 24.6711140760507  5.80316840277778 24.9499666444296  6.12044270833333 25.3609072715143  C 6.43771701388889 25.7718478985991  6.67013888888889 26.1460973982655  6.81770833333333 26.4836557705137  L 7.0390625 26.9899933288859  C 7.23090277777778 27.5476984656438  7.55555555555556 27.9989993328886  8.01302083333333 28.3438959306204  C 8.47048611111111 28.6887925283522  8.96484375 28.9089392928619  9.49609375 29.0043362241494  C 10.02734375 29.099733155437  10.5401475694444 29.1511007338225  11.0345052083333 29.1584389593062  C 11.5288628472222 29.1657771847899  11.9383680555556 29.1400933955971  12.2630208333333 29.0813875917278  L 12.7721354166667 28.993328885924  C 12.7721354166667 29.5510340226818  12.7758246527778 30.2041360907272  12.783203125 30.95263509006  C 12.7905815972222 31.7011340893929  12.7942708333333 32.0973982655103  12.7942708333333 32.1414276184123  C 12.7942708333333 32.4056037358239  12.6983506944444 32.6257505003336  12.5065104166667 32.8018679119413  C 12.3146701388889 32.977985323549  12.01953125 33.0293529019346  11.62109375 32.9559706470981  C 8.19748263888889 31.8258839226151  5.40473090277778 29.7895263509006  3.24283854166667 26.8468979319546  C 1.08094618055556 23.9042695130087  0 20.5910607071381  0 16.9072715143429  C 0 13.8398932621748  0.759982638888889 11.0110073382255  2.27994791666667 8.42061374249499  C 3.79991319444444 5.83022014676451  5.86219618055556 3.77918612408272  8.466796875 2.26751167444963  C 11.0713975694444 0.755837224816543  13.9157986111111 0  17 0  C 20.0842013888889 0  22.9286024305556 0.755837224816543  25.533203125 2.26751167444963  C 28.1378038194444 3.77918612408272  30.2000868055556 5.83022014676451  31.7200520833333 8.42061374249499  Z " fill-rule="nonzero" fill="#999999" stroke="none" transform="matrix(1 0 0 1 94 451 )" />
  </g>
</svg>