<?xml version="1.0" encoding="utf-8"?>
<svg version="1.1" xmlns:xlink="http://www.w3.org/1999/xlink" width="18px" height="18px" xmlns="http://www.w3.org/2000/svg">
  <g transform="matrix(1 0 0 1 -1158 -1186 )">
    <path d="M 1167 1186.5  C 1171.76 1186.5  1175.5 1190.24  1175.5 1195  C 1175.5 1199.76  1171.76 1203.5  1167 1203.5  C 1162.24 1203.5  1158.5 1199.76  1158.5 1195  C 1158.5 1190.24  1162.24 1186.5  1167 1186.5  Z " fill-rule="nonzero" fill="#3399ff" stroke="none" fill-opacity="0.756862745098039" />
    <path d="M 1167 1186.5  C 1171.76 1186.5  1175.5 1190.24  1175.5 1195  C 1175.5 1199.76  1171.76 1203.5  1167 1203.5  C 1162.24 1203.5  1158.5 1199.76  1158.5 1195  C 1158.5 1190.24  1162.24 1186.5  1167 1186.5  Z " stroke-width="1" stroke="#3399ff" fill="none" stroke-opacity="0.498039215686275" />
  </g>
</svg>