<?xml version="1.0" encoding="utf-8"?>
<svg version="1.1" xmlns:xlink="http://www.w3.org/1999/xlink" width="18px" height="18px" xmlns="http://www.w3.org/2000/svg">
  <g transform="matrix(1 0 0 1 -1248 -1186 )">
    <path d="M 1257 1186  C 1262.04 1186  1266 1189.96  1266 1195  C 1266 1200.04  1262.04 1204  1257 1204  C 1251.96 1204  1248 1200.04  1248 1195  C 1248 1189.96  1251.96 1186  1257 1186  Z " fill-rule="nonzero" fill="#ffffff" stroke="none" />
    <path d="M 1257 1186.5  C 1261.76 1186.5  1265.5 1190.24  1265.5 1195  C 1265.5 1199.76  1261.76 1203.5  1257 1203.5  C 1252.24 1203.5  1248.5 1199.76  1248.5 1195  C 1248.5 1190.24  1252.24 1186.5  1257 1186.5  Z " stroke-width="1" stroke="#aeaeae" fill="none" />
  </g>
</svg>