<?xml version="1.0" encoding="utf-8"?>
<svg version="1.1" xmlns:xlink="http://www.w3.org/1999/xlink" width="14px" height="14px" xmlns="http://www.w3.org/2000/svg">
  <g transform="matrix(1 0 0 1 -375 -1464 )">
    <path d="M 382 1464  C 385.92 1464  389 1467.08  389 1471  C 389 1474.92  385.92 1478  382 1478  C 378.08 1478  375 1474.92  375 1471  C 375 1467.08  378.08 1464  382 1464  Z " fill-rule="nonzero" fill="#ffffff" stroke="none" />
    <path d="M 382 1464.5  C 385.64 1464.5  388.5 1467.36  388.5 1471  C 388.5 1474.64  385.64 1477.5  382 1477.5  C 378.36 1477.5  375.5 1474.64  375.5 1471  C 375.5 1467.36  378.36 1464.5  382 1464.5  Z " stroke-width="1" stroke="#aeaeae" fill="none" />
  </g>
</svg>