<?xml version="1.0" encoding="utf-8"?>
<svg version="1.1" xmlns:xlink="http://www.w3.org/1999/xlink" width="10px" height="46px" preserveAspectRatio="xMidYMin meet" viewBox="668 1975  8 46" xmlns="http://www.w3.org/2000/svg">
  <path d="M 768 1689  L 775 1689  A 5 5 0 0 1 780 1694 L 780 1975  A 5 5 0 0 1 775 1980 L 677 1980  A 5 5 0 0 0 672 1985 L 672 2019  " stroke-width="2" stroke="#3399ff" fill="none" />
  <path d="M 769.5 1685.5  A 3.5 3.5 0 0 0 766 1689 A 3.5 3.5 0 0 0 769.5 1692.5 A 3.5 3.5 0 0 0 773 1689 A 3.5 3.5 0 0 0 769.5 1685.5 Z M 676.292893218813 2013.89289321881  L 672 2018.18578643763  L 667.707106781187 2013.89289321881  L 666.292893218813 2015.30710678119  L 671.292893218813 2020.30710678119  L 672 2021.01421356237  L 672.707106781187 2020.30710678119  L 677.707106781187 2015.30710678119  L 676.292893218813 2013.89289321881  Z " fill-rule="nonzero" fill="#3399ff" stroke="none" />
</svg>