<?xml version="1.0" encoding="utf-8"?>
<svg version="1.1" xmlns:xlink="http://www.w3.org/1999/xlink" width="10px" height="1633px" preserveAspectRatio="xMidYMin meet" viewBox="36 1284  8 1633" xmlns="http://www.w3.org/2000/svg">
  <path d="M 398 1418  L 398 1415  A 5 5 0 0 1 403 1410 L 437 1410  A 5 5 0 0 0 442 1405 L 442 1294  A 5 5 0 0 0 437 1289 L 45 1289  A 5 5 0 0 0 40 1294 L 40 2907  A 5 5 0 0 0 45 2912 L 72 2912  " stroke-width="2" stroke="#3399ff" fill="none" />
  <path d="M 398 1413  A 3.5 3.5 0 0 0 394.5 1416.5 A 3.5 3.5 0 0 0 398 1420 A 3.5 3.5 0 0 0 401.5 1416.5 A 3.5 3.5 0 0 0 398 1413 Z M 66.8928932188134 2907.70710678119  L 71.1857864376268 2912  L 66.8928932188134 2916.29289321881  L 68.3071067811865 2917.70710678119  L 73.3071067811865 2912.70710678119  L 74.0142135623732 2912  L 73.3071067811865 2911.29289321881  L 68.3071067811865 2906.29289321881  L 66.8928932188134 2907.70710678119  Z " fill-rule="nonzero" fill="#3399ff" stroke="none" />
</svg>