<?xml version="1.0" encoding="utf-8"?>
<svg version="1.1" xmlns:xlink="http://www.w3.org/1999/xlink" width="10px" height="26px" preserveAspectRatio="xMidYMin meet" viewBox="228 1995  8 26" xmlns="http://www.w3.org/2000/svg">
  <path d="M 768 1515  L 790 1515  A 5 5 0 0 1 795 1520 L 795 1995  A 5 5 0 0 1 790 2000 L 675 2000  A 3 3 0 0 0 672 1997 A 3 3 0 0 0 669 2000 L 237 2000  A 5 5 0 0 0 232 2005 L 232 2019  " stroke-width="2" stroke="#3399ff" fill="none" />
  <path d="M 769.5 1511.5  A 3.5 3.5 0 0 0 766 1515 A 3.5 3.5 0 0 0 769.5 1518.5 A 3.5 3.5 0 0 0 773 1515 A 3.5 3.5 0 0 0 769.5 1511.5 Z M 236.292893218813 2013.89289321881  L 232 2018.18578643763  L 227.707106781187 2013.89289321881  L 226.292893218813 2015.30710678119  L 231.292893218813 2020.30710678119  L 232 2021.01421356237  L 232.707106781187 2020.30710678119  L 237.707106781187 2015.30710678119  L 236.292893218813 2013.89289321881  Z " fill-rule="nonzero" fill="#3399ff" stroke="none" />
</svg>